<?xml version="1.0" standalone="no"?>
<!DOCTYPE svg PUBLIC "-//W3C//DTD SVG 20010904//EN"
 "http://www.w3.org/TR/2001/REC-SVG-20010904/DTD/svg10.dtd">
<svg version="1.0" xmlns="http://www.w3.org/2000/svg"
 width="1280.000000pt" height="1280.000000pt" viewBox="0 0 1280.000000 1280.000000"
 preserveAspectRatio="xMidYMid meet">

<g transform="translate(0.000000,1280.000000) scale(0.100000,-0.100000)"
fill="#000000" stroke="none">
<path d="M0 6400 l0 -6400 6400 0 6400 0 0 6400 0 6400 -6400 0 -6400 0 0
-6400z m6592 4453 c645 -626 878 -855 878 -862 0 -4 -21 -12 -47 -17 -44 -8
-48 -12 -51 -40 l-3 -31 -152 -41 c-437 -119 -554 -152 -574 -161 -17 -8 -22
-6 -27 12 -7 25 24 57 55 57 27 0 33 19 12 38 -11 9 -53 47 -94 83 -113 102
-203 179 -209 179 -3 0 -133 -126 -290 -279 -157 -153 -287 -277 -290 -274 -3
2 3 9 13 14 25 15 21 29 -9 29 -23 0 -25 -3 -19 -27 5 -23 4 -25 -9 -14 -23
19 -20 46 7 64 12 9 17 16 11 16 -5 1 -20 -8 -33 -20 l-22 -21 20 -34 20 -34
-33 -33 c-87 -84 -159 -150 -143 -131 9 11 17 26 17 32 0 7 5 12 11 12 19 0
69 54 69 75 0 12 5 26 11 32 8 8 8 13 0 17 -6 4 -11 2 -11 -3 0 -6 -8 -11 -18
-11 -9 0 -23 -9 -29 -19 -7 -11 -26 -22 -42 -26 -37 -8 -47 -21 -31 -40 8 -10
9 -15 2 -15 -6 0 -16 9 -22 20 -8 16 -6 24 11 41 14 14 18 24 11 31 -13 13
-32 1 -32 -21 0 -18 -18 -41 -33 -41 -5 0 -4 7 3 15 10 12 9 22 -4 50 -16 32
-36 47 -36 26 0 -13 -27 -21 -45 -15 -12 5 -13 9 -4 21 9 10 9 17 1 25 -8 8
-13 7 -18 -6 -7 -18 21 -105 40 -121 6 -5 12 -26 14 -46 3 -33 0 -39 -27 -52
-17 -9 -31 -11 -31 -6 0 5 11 14 25 19 14 5 25 17 25 28 0 28 -11 34 -32 15
-10 -9 -19 -14 -21 -12 -1 2 -8 13 -15 24 -7 11 -15 28 -18 38 -4 9 -10 17
-15 17 -12 0 -11 -14 1 -26 5 -5 6 -15 0 -24 -7 -11 -11 -8 -20 14 -8 22 -14
26 -22 18 -9 -9 -9 -15 0 -24 14 -14 -2 -38 -24 -38 -8 0 -14 -4 -14 -10 0
-20 -17 -10 -30 18 -8 17 -14 22 -17 14 -3 -8 0 -19 6 -25 6 -6 11 -19 11 -29
0 -10 5 -18 10 -18 13 0 13 -27 0 -35 -6 -3 -13 2 -16 12 -18 54 -30 71 -44
63 -13 -8 -12 -11 3 -22 16 -12 15 -15 -12 -39 -29 -25 -31 -26 -49 -9 -13 12
-24 15 -33 9 -8 -5 -17 -9 -20 -9 -4 0 -6 64 -5 143 1 135 0 143 -21 165 -13
13 -23 31 -23 42 0 10 -4 22 -10 25 -5 3 -10 25 -10 48 l0 42 397 389 c219
215 522 513 673 663 151 150 278 273 282 273 4 0 103 -93 220 -207z m-1628
171 c25 -24 20 -71 -9 -90 -23 -15 -27 -15 -50 0 -44 29 -26 106 25 106 10 0
26 -7 34 -16z m-1150 -20 c11 -29 6 -42 -20 -47 -44 -8 -64 2 -64 34 0 27 3
29 39 29 26 0 41 -5 45 -16z m1951 -49 l0 -60 -47 -3 -46 -3 -4 51 c-1 29 -1
55 2 59 8 12 32 19 65 17 30 -1 30 -1 30 -61z m-1372 33 c27 -20 11 -58 -24
-58 -33 0 -43 13 -35 46 7 26 32 32 59 12z m3477 -198 l0 -190 -157 0 c-87 0
-175 -3 -195 -6 l-38 -7 0 190 c0 104 3 193 7 196 3 4 91 7 195 7 l188 0 0
-190z m560 150 c0 -39 -1 -40 -35 -40 -34 0 -35 1 -35 40 0 39 1 40 35 40 34
0 35 -1 35 -40z m-1348 -32 c3 -42 4 -43 41 -46 53 -5 51 -32 -3 -32 -43 0
-44 -2 -40 -77 1 -27 -2 -33 -19 -33 -17 0 -20 7 -23 53 l-3 52 -42 -2 c-36
-1 -43 1 -43 17 0 15 9 19 43 22 42 3 42 3 45 46 3 33 7 42 22 42 15 0 19 -9
22 -42z m-2805 -162 c3 -3 2 -26 -1 -51 -6 -37 -12 -48 -32 -56 -15 -5 -269
-9 -619 -9 -396 0 -612 -4 -647 -11 -45 -9 -62 -20 -110 -69 -36 -37 -60 -72
-67 -96 -6 -22 -11 -134 -12 -254 0 -118 -4 -224 -9 -235 -5 -12 -9 -14 -9 -6
-1 11 -7 9 -24 -7 -33 -31 -46 -28 -64 15 -23 55 -14 486 12 556 25 69 103
150 183 189 l67 33 610 6 c608 6 712 5 722 -5z m4537 -2 c22 -21 20 -67 -2
-88 -11 -9 -116 -40 -243 -71 -123 -30 -250 -61 -281 -70 -78 -20 -105 -19
-118 5 -19 36 -8 72 28 93 37 22 509 144 564 146 21 0 43 -5 52 -15z m-4280
-14 c71 -27 139 -88 170 -153 24 -49 25 -61 27 -247 0 -107 1 -200 0 -206 -1
-6 -15 -17 -32 -24 -26 -11 -32 -11 -40 1 -12 20 -12 92 1 84 6 -3 10 4 10 17
0 17 -2 20 -9 9 -6 -9 -10 33 -10 110 -1 68 -6 141 -10 161 -22 96 -97 156
-203 165 -71 6 -88 19 -88 70 l0 33 65 0 c40 0 85 -8 119 -20z m794 -26 l37
-17 -46 -8 c-56 -11 -132 -51 -158 -86 -11 -13 -23 -45 -27 -70 -6 -42 -8 -45
-20 -28 -8 10 -14 42 -14 70 0 118 115 188 228 139z m4405 -140 c71 -15 190
-54 185 -60 -2 -1 -35 6 -73 17 -178 50 -343 33 -650 -68 -148 -48 -181 -66
-205 -111 -19 -35 -20 -35 -13 -7 7 35 7 39 -2 82 l-7 32 83 25 c173 52 275
79 344 91 98 18 253 18 338 -1z m-4359 -128 c-9 -24 -69 -46 -121 -45 l-48 2
50 7 c56 8 100 23 110 39 9 16 15 13 9 -3z m-1874 -75 l0 -48 -112 -6 c-124
-5 -159 -15 -201 -55 -50 -47 -52 -55 -57 -287 l-5 -220 -41 -3 -42 -3 -7 177
c-13 297 -1 352 89 431 61 54 89 61 244 62 l132 1 0 -49z m575 12 c54 -35 89
-80 111 -140 18 -51 20 -463 2 -481 -7 -7 -27 -12 -45 -12 l-33 0 0 208 c0
234 -7 261 -74 320 -20 17 -31 32 -24 32 6 0 34 -23 60 -51 56 -60 66 -49 11
13 -58 63 -100 78 -218 76 -72 -1 -82 -3 -37 -5 34 -2 62 -8 62 -13 0 -6 -63
-10 -154 -10 l-153 0 -7 31 c-15 76 -33 71 222 67 l228 -3 49 -32z m4283 -60
c-3 -27 -7 -29 -256 -95 -139 -37 -330 -90 -425 -117 -158 -46 -173 -48 -189
-34 -30 27 -20 39 50 56 37 9 227 61 422 116 195 54 365 99 378 100 20 1 23
-3 20 -26z m-4378 -3 c11 -8 7 -9 -15 -4 -37 8 -45 14 -19 14 10 0 26 -5 34
-10z m988 -237 l4 -153 -37 0 -38 0 5 173 c7 203 11 223 41 170 18 -33 21 -60
25 -190z m4767 172 c85 -23 152 -62 220 -130 78 -78 119 -159 119 -237 1 -32
5 -58 10 -58 17 0 0 -154 -24 -210 -13 -30 -27 -59 -33 -65 -5 -5 -2 7 7 29 9
21 16 48 16 60 -1 18 -3 18 -16 -8 -13 -23 -21 -27 -44 -24 -20 3 -27 1 -23
-9 3 -9 0 -11 -10 -7 -8 3 -30 -2 -48 -11 -29 -15 -31 -15 -26 -1 4 9 3 16 -2
16 -5 0 -11 -10 -15 -22 -4 -17 -8 -20 -17 -11 -11 11 -49 6 -49 -7 0 -11 -40
-25 -63 -21 -11 1 -40 -2 -65 -8 -69 -16 -101 -21 -157 -26 -27 -3 -54 -11
-59 -19 -7 -10 -15 -11 -32 -4 -18 8 -27 6 -46 -11 -14 -14 -31 -20 -43 -17
-17 4 -16 2 5 -17 14 -12 37 -30 50 -40 21 -15 19 -15 -15 2 -136 65 -225 220
-225 390 0 138 45 248 139 342 120 119 285 165 446 124z m-7310 -148 c13 -21
15 -124 15 -852 0 -699 -2 -829 -14 -839 -7 -6 -16 -24 -19 -39 -4 -28 -4 -29
30 -22 19 3 115 28 214 56 99 27 212 56 252 65 40 9 80 21 90 26 17 9 17 11
-7 33 -31 29 -33 64 -6 124 11 24 20 44 20 45 0 0 -25 -1 -56 -2 -107 -7 -218
70 -256 176 -10 28 -13 131 -13 418 0 362 1 383 19 403 23 25 53 27 78 4 18
-17 24 -39 11 -45 -5 -1 -6 -167 -3 -368 5 -397 4 -385 66 -459 32 -39 62 -55
137 -74 54 -14 61 -14 100 3 59 26 907 240 951 240 46 0 103 -24 139 -57 37
-36 34 -51 -4 -19 -45 38 -89 34 -357 -35 -654 -168 -623 -160 -682 -186 -53
-24 -87 -55 -101 -90 -9 -25 -3 -69 12 -89 13 -16 20 -104 8 -104 -5 0 -9 7
-9 15 0 8 -2 15 -4 15 -6 0 -294 -74 -503 -129 -106 -28 -195 -51 -198 -51
-10 0 -5 1821 5 1841 15 28 65 25 85 -4z m6570 -49 c-50 -110 -67 -188 -67
-308 1 -128 22 -231 68 -325 29 -59 30 -65 10 -40 -41 50 -93 156 -111 223
-34 132 -26 295 20 415 9 21 11 37 5 37 -10 0 -148 -37 -370 -100 -58 -16
-170 -45 -250 -65 -80 -19 -181 -44 -225 -56 -89 -24 -236 -58 -247 -59 -5 0
-8 6 -8 14 0 9 17 18 43 24 23 5 98 26 167 46 69 20 260 72 425 116 165 44
356 95 425 114 69 19 130 34 137 35 7 1 -2 -30 -22 -71z m-5286 26 c38 -11 68
-30 107 -68 l54 -52 -24 -50 c-32 -66 -77 -108 -154 -145 -78 -36 -140 -49
-243 -49 l-79 0 0 -27 c1 -25 9 -52 35 -118 8 -19 8 -19 -12 -2 -11 10 -33 45
-48 79 -25 54 -27 69 -23 147 3 71 9 95 33 140 38 70 95 117 170 141 74 23
116 24 184 4z m1015 -50 c3 -9 5 -43 5 -77 -1 -34 -4 -51 -6 -37 -3 14 -10 31
-16 38 -8 10 -7 16 4 23 11 7 11 9 -3 9 -10 0 -19 -8 -19 -17 -1 -17 -2 -17
-6 0 -2 9 -8 17 -13 17 -5 0 -7 -6 -5 -12 2 -7 0 -29 -4 -48 -8 -31 -9 -28
-10 31 -1 62 0 66 27 76 38 15 39 15 46 -3z m3546 -184 c0 -5 -2 -10 -4 -10
-3 0 -8 5 -11 10 -3 6 -1 10 4 10 6 0 11 -4 11 -10z m-70 -14 c0 -11 -19 -15
-25 -6 -3 5 1 10 9 10 9 0 16 -2 16 -4z m-50 -16 c0 -5 -4 -10 -9 -10 -6 0
-13 5 -16 10 -3 6 1 10 9 10 9 0 16 -4 16 -10z m-40 -4 c0 -3 -4 -8 -10 -11
-5 -3 -10 -1 -10 4 0 6 5 11 10 11 6 0 10 -2 10 -4z m145 -5 c3 -5 1 -12 -5
-16 -5 -3 -10 1 -10 9 0 18 6 21 15 7z m62 3 c-3 -3 -12 -4 -19 -1 -8 3 -5 6
6 6 11 1 17 -2 13 -5z m-247 -14 c0 -5 -2 -10 -4 -10 -3 0 -8 5 -11 10 -3 6
-1 10 4 10 6 0 11 -4 11 -10z m-201 -146 c108 -110 140 -148 130 -155 -8 -4
-51 -17 -94 -29 -177 -47 -233 -62 -304 -80 l-75 -19 -55 47 c-31 26 -97 87
-148 136 -51 50 -98 93 -103 96 -5 3 84 32 198 64 114 31 225 64 247 71 22 7
45 14 50 14 6 1 75 -65 154 -145z m161 136 c0 -5 -2 -10 -4 -10 -3 0 -8 5 -11
10 -3 6 -1 10 4 10 6 0 11 -4 11 -10z m140 -10 c0 -5 -4 -10 -10 -10 -5 0 -10
5 -10 10 0 6 5 10 10 10 6 0 10 -4 10 -10z m190 -4 c-14 -7 -29 -10 -34 -8
-11 6 20 20 44 21 8 0 4 -5 -10 -13z m450 -21 c0 -8 -4 -15 -10 -15 -5 0 -10
7 -10 15 0 8 5 15 10 15 6 0 10 -7 10 -15z m-737 -38 c-3 -5 -11 0 -19 10 -20
27 -17 39 5 17 10 -10 16 -23 14 -27z m-103 23 c0 -5 -2 -10 -4 -10 -3 0 -8 5
-11 10 -3 6 -1 10 4 10 6 0 11 -4 11 -10z m246 -5 c-33 -18 -36 -18 -36 -6 0
9 21 18 50 20 8 0 2 -6 -14 -14z m-1716 -35 c0 -21 -19 -29 -160 -70 -58 -17
-129 -42 -158 -57 -28 -14 -54 -24 -57 -21 -10 10 14 56 41 77 14 11 59 30 98
42 39 11 103 31 141 43 73 24 95 21 95 -14z m1525 30 c3 -5 1 -10 -4 -10 -6 0
-11 5 -11 10 0 6 2 10 4 10 3 0 8 -4 11 -10z m135 -20 c0 -5 -4 -10 -10 -10
-5 0 -10 5 -10 10 0 6 5 10 10 10 6 0 10 -4 10 -10z m-3180 -312 l0 -313 -25
-12 c-15 -6 -22 -7 -19 -1 4 6 -1 8 -15 3 l-21 -6 0 285 0 285 38 35 c20 20
38 36 40 36 1 0 2 -141 2 -312z m-1870 272 c11 -7 16 -42 20 -152 7 -162 19
-201 71 -239 32 -22 45 -24 202 -29 92 -3 167 -8 167 -12 0 -5 0 -24 0 -43 0
-28 -3 -33 -17 -28 -11 4 -14 3 -9 -5 4 -7 1 -12 -9 -12 -9 0 -14 3 -12 8 3 4
-11 8 -31 8 -139 5 -175 9 -242 27 -41 11 -81 20 -87 20 -7 0 -13 5 -13 10 0
5 -6 4 -14 -2 -11 -9 -20 -4 -44 24 -43 49 -51 88 -53 264 -1 120 1 155 12
162 18 11 40 11 59 -1z m5538 -30 c8 0 13 -3 9 -6 -10 -10 -48 7 -40 19 5 8 8
8 11 -1 2 -7 11 -12 20 -12z m32 -46 c0 -2 -7 -4 -15 -4 -8 0 -15 4 -15 10 0
5 7 7 15 4 8 -4 15 -8 15 -10z m25 -34 c3 -5 -1 -10 -10 -10 -9 0 -13 5 -10
10 3 6 8 10 10 10 2 0 7 -4 10 -10z m94 -74 c-1 -16 -4 -13 -11 12 -6 17 -15
32 -19 32 -5 0 -9 6 -9 13 1 6 10 1 20 -12 11 -13 20 -33 19 -45z m-4186 13
c15 -11 32 -37 38 -57 13 -46 8 -247 -7 -262 -12 -12 -514 -140 -550 -140 -21
0 17 42 217 240 133 132 250 240 259 240 10 0 29 -9 43 -21z m3657 -14 c0 -32
-3 -35 -42 -45 -24 -7 -81 -22 -128 -35 -47 -13 -238 -65 -425 -115 -338 -91
-848 -231 -1000 -276 -44 -13 -132 -37 -195 -54 -63 -17 -126 -35 -140 -39
-14 -5 -44 -14 -67 -21 l-42 -13 -3 -91 c-2 -50 -2 -94 -1 -97 1 -4 31 1 65
11 450 126 1206 335 1286 355 57 14 223 60 370 102 331 95 375 98 492 41 81
-39 156 -105 209 -181 50 -73 104 -217 81 -217 -5 0 -10 6 -10 13 0 7 -18 51
-40 97 -71 145 -203 251 -354 282 -56 12 -65 11 -220 -30 -88 -23 -183 -48
-211 -56 -85 -25 -343 -95 -485 -131 -74 -19 -173 -46 -220 -61 -47 -14 -138
-39 -202 -55 -64 -15 -177 -46 -250 -67 -73 -22 -194 -56 -268 -77 -178 -49
-233 -66 -244 -76 -5 -5 -8 -38 -7 -74 2 -60 1 -65 -18 -65 -21 0 -21 4 -21
214 l0 214 43 16 c23 8 115 36 205 61 89 25 233 65 320 89 175 49 389 109 907
251 504 138 585 160 608 164 4 0 7 -15 7 -34z m480 23 c0 -4 -9 -8 -20 -8 -11
0 -20 4 -20 8 0 4 9 8 20 8 11 0 20 -4 20 -8z m-60 -19 c0 -5 -4 -9 -10 -9 -5
0 -10 7 -10 16 0 8 5 12 10 9 6 -3 10 -10 10 -16z m-3191 -25 c-16 -19 -60
-19 -53 0 6 16 32 25 52 18 9 -3 10 -8 1 -18z m3151 16 c0 -5 -2 -10 -4 -10
-3 0 -8 5 -11 10 -3 6 -1 10 4 10 6 0 11 -4 11 -10z m-1597 -24 c-4 -5 -1 -6
8 0 24 14 49 15 43 1 -3 -9 4 -13 26 -11 18 1 27 -2 24 -8 -4 -6 1 -8 14 -4
11 4 23 2 27 -3 7 -12 -43 -9 -66 3 -8 4 -3 -2 11 -14 13 -12 26 -18 28 -12 1
5 14 7 28 4 20 -4 22 -7 13 -19 -10 -11 -14 -11 -20 -1 -6 9 -9 9 -9 1 0 -6 7
-18 15 -27 17 -17 20 -30 5 -21 -13 8 -13 -1 0 -26 20 -36 -5 -19 -95 65 -67
63 -84 84 -68 83 12 -1 19 -5 16 -11z m-1373 -11 c0 -9 -11 -20 -25 -25 -14
-5 -25 -14 -25 -20 0 -5 -4 -10 -10 -10 -21 0 -8 26 23 47 39 27 37 26 37 8z
m3220 5 c0 -5 -5 -10 -11 -10 -5 0 -7 5 -4 10 3 6 8 10 11 10 2 0 4 -4 4 -10z
m-1640 -40 c0 -6 -9 -2 -20 7 -11 10 -20 19 -20 21 0 1 9 -2 20 -8 11 -6 20
-15 20 -20z m40 15 c0 -13 -4 -14 -20 -5 -11 6 -20 13 -20 15 0 3 9 5 20 5 11
0 20 -7 20 -15z m1550 -5 c0 -5 -2 -10 -4 -10 -3 0 -8 5 -11 10 -3 6 -1 10 4
10 6 0 11 -4 11 -10z m-46 -21 c-3 -5 -10 -7 -15 -3 -5 3 -7 10 -3 15 3 5 10
7 15 3 5 -3 7 -10 3 -15z m-6694 -34 l0 -45 -43 0 c-24 0 -46 2 -48 4 -3 3 -3
23 -1 45 l4 41 44 0 44 0 0 -45z m5280 36 c0 -5 -9 -7 -20 -4 -11 3 -20 7 -20
9 0 2 9 4 20 4 11 0 20 -4 20 -9z m3094 -7 c5 -14 4 -15 -9 -4 -17 14 -19 20
-6 20 5 0 12 -7 15 -16z m-4939 -27 c-20 -11 -27 -5 -19 17 5 13 9 14 21 5 12
-11 12 -14 -2 -22z m3200 23 c3 -5 1 -10 -4 -10 -6 0 -11 5 -11 10 0 6 2 10 4
10 3 0 8 -4 11 -10z m112 -22 c-3 -7 -5 -2 -5 12 0 14 2 19 5 13 2 -7 2 -19 0
-25z m58 22 c3 -6 -1 -7 -9 -4 -18 7 -21 14 -7 14 6 0 13 -4 16 -10z m530 -28
c-3 -3 -11 0 -18 7 -9 10 -8 11 6 5 10 -3 15 -9 12 -12z m-4055 -13 c0 -5 -7
-9 -15 -9 -17 0 -17 -2 -9 -24 3 -9 12 -12 22 -8 14 5 15 4 2 -10 -14 -15 -16
-14 -29 13 -14 28 -31 39 -31 19 0 -5 -4 -10 -10 -10 -19 0 -10 15 18 31 27
16 52 15 52 -2z m115 11 c-3 -5 -12 -10 -18 -10 -7 0 -6 4 3 10 19 12 23 12
15 0z m3315 2 c0 -13 -12 -22 -22 -16 -10 6 -1 24 13 24 5 0 9 -4 9 -8z m130
-51 c0 -11 -4 -9 -15 5 -8 10 -14 28 -14 39 0 18 1 17 14 -5 8 -14 14 -31 15
-39z m35 39 c3 -5 1 -10 -4 -10 -6 0 -11 5 -11 10 0 6 2 10 4 10 3 0 8 -4 11
-10z m-3427 -18 c-10 -2 -18 -10 -18 -18 0 -8 -4 -14 -10 -14 -13 0 -13 6 2
29 7 12 18 17 27 13 14 -6 14 -7 -1 -10z m3342 -8 c0 -2 -7 -4 -15 -4 -8 0
-15 4 -15 10 0 5 7 7 15 4 8 -4 15 -8 15 -10z m-3600 -9 c0 -8 -4 -15 -10 -15
-5 0 -10 7 -10 15 0 8 5 15 10 15 6 0 10 -7 10 -15z m3530 5 c0 -5 -5 -10 -11
-10 -5 0 -7 5 -4 10 3 6 8 10 11 10 2 0 4 -4 4 -10z m245 -20 c10 -11 16 -20
13 -20 -3 0 -13 9 -23 20 -10 11 -16 20 -13 20 3 0 13 -9 23 -20z m-3735 0 c0
-5 -4 -10 -10 -10 -5 0 -10 5 -10 10 0 6 5 10 10 10 6 0 10 -4 10 -10z m164
-5 c3 -8 1 -15 -4 -15 -6 0 -10 7 -10 15 0 8 2 15 4 15 2 0 6 -7 10 -15z
m3401 -5 c3 -5 -1 -10 -10 -10 -9 0 -13 5 -10 10 3 6 8 10 10 10 2 0 7 -4 10
-10z m125 -5 c0 -9 -6 -12 -15 -9 -8 4 -15 10 -15 15 0 5 7 9 15 9 8 0 15 -7
15 -15z m-3790 -14 c0 -13 -60 -40 -66 -30 -3 6 3 13 15 16 12 3 21 11 21 19
0 8 6 11 15 8 8 -4 15 -9 15 -13z m234 3 c9 -24 2 -26 -12 -4 -7 11 -8 20 -3
20 5 0 12 -7 15 -16z m-336 -33 c-14 -5 -31 15 -23 29 5 8 11 6 20 -7 9 -11
10 -19 3 -22z m3832 29 c0 -5 -4 -10 -10 -10 -5 0 -10 5 -10 10 0 6 5 10 10
10 6 0 10 -4 10 -10z m-3660 -10 c0 -5 -2 -10 -4 -10 -3 0 -8 5 -11 10 -3 6
-1 10 4 10 6 0 11 -4 11 -10z m3799 -10 c-8 -4 -31 -10 -51 -13 -28 -4 -38 -2
-38 8 0 10 11 12 40 8 27 -4 40 -2 40 6 0 7 5 9 11 5 8 -5 8 -9 -2 -14z
m-3999 -15 c0 -9 -6 -12 -15 -9 -8 4 -12 10 -9 15 8 14 24 10 24 -6z m170 5
c0 -5 -4 -10 -10 -10 -5 0 -10 5 -10 10 0 6 5 10 10 10 6 0 10 -4 10 -10z
m-30 -10 c0 -5 -7 -10 -16 -10 -8 0 -12 5 -9 10 3 6 10 10 16 10 5 0 9 -4 9
-10z m193 -5 c-3 -9 -8 -14 -10 -11 -3 3 -2 9 2 15 9 16 15 13 8 -4z m3555 4
c-2 -6 -8 -10 -13 -10 -5 0 -11 4 -13 10 -2 6 4 11 13 11 9 0 15 -5 13 -11z
m-3828 -17 c0 -5 -6 -9 -12 -9 -7 0 -21 -4 -30 -8 -11 -4 -18 -3 -18 3 0 10
19 18 48 21 6 0 12 -3 12 -7z m3880 -2 c0 -5 -2 -10 -4 -10 -3 0 -8 5 -11 10
-3 6 -1 10 4 10 6 0 11 -4 11 -10z m214 -79 c-5 -6 -55 29 -89 62 -21 20 -11
15 31 -15 34 -23 60 -45 58 -47z m-136 62 c6 -19 -25 -16 -32 3 -4 11 -1 14
11 12 9 -2 18 -9 21 -15z m-123 -3 c3 -5 1 -10 -4 -10 -6 0 -11 5 -11 10 0 6
2 10 4 10 3 0 8 -4 11 -10z m-55 -10 c0 -5 -4 -10 -9 -10 -6 0 -13 5 -16 10
-3 6 1 10 9 10 9 0 16 -4 16 -10z m-3763 -6 c-3 -3 -12 -4 -19 -1 -8 3 -5 6 6
6 11 1 17 -2 13 -5z m3893 2 c0 -11 -19 -15 -25 -6 -3 5 1 10 9 10 9 0 16 -2
16 -4z m-3930 -10 c0 -3 -4 -8 -10 -11 -5 -3 -10 -1 -10 4 0 6 5 11 10 11 6 0
10 -2 10 -4z m3870 -10 c0 -3 -4 -8 -10 -11 -5 -3 -10 -1 -10 4 0 6 5 11 10
11 6 0 10 -2 10 -4z m128 -7 c-2 -6 -8 -10 -13 -10 -5 0 -11 4 -13 10 -2 6 4
11 13 11 9 0 15 -5 13 -11z m47 1 c3 -5 1 -10 -4 -10 -6 0 -11 5 -11 10 0 6 2
10 4 10 3 0 8 -4 11 -10z m-95 -20 c0 -5 -4 -10 -9 -10 -6 0 -13 5 -16 10 -3
6 1 10 9 10 9 0 16 -4 16 -10z m122 -22 c-9 -9 -15 -9 -24 0 -9 9 -7 12 12 12
19 0 21 -3 12 -12z m826 -165 l-3 -178 -35 -3 c-19 -2 -150 -34 -290 -72 -140
-37 -300 -79 -355 -93 -133 -33 -718 -190 -824 -221 -98 -29 -107 -36 -91 -66
7 -13 8 -20 2 -16 -6 4 -14 0 -19 -7 -4 -7 -16 -16 -25 -20 -21 -7 -20 -21
-22 227 l-1 168 24 9 c32 13 273 79 501 139 102 27 275 73 385 103 110 30 295
80 410 111 116 32 237 65 270 76 33 10 63 18 68 19 4 1 6 -79 5 -176z m-888
157 c0 -5 -4 -10 -10 -10 -5 0 -10 5 -10 10 0 6 5 10 10 10 6 0 10 -4 10 -10z
m-3350 -40 c0 -33 -4 -41 -22 -45 -152 -36 -237 -57 -253 -64 -45 -19 -95 -33
-285 -82 -25 -6 -53 -15 -62 -20 -10 -5 -24 -9 -33 -9 -8 0 -34 -6 -57 -14
-24 -7 -70 -19 -103 -26 -33 -7 -80 -18 -105 -25 -25 -8 -65 -19 -90 -25 -25
-7 -65 -18 -90 -25 -25 -8 -64 -19 -88 -26 -24 -7 -50 -22 -58 -33 -13 -19
-14 -16 -14 35 l0 56 188 51 c650 179 1058 290 1065 291 4 1 7 -17 7 -39z
m3310 20 c0 -5 -4 -10 -10 -10 -5 0 -10 5 -10 10 0 6 5 10 10 10 6 0 10 -4 10
-10z m126 -17 c-10 -10 -19 5 -10 18 6 11 8 11 12 0 2 -7 1 -15 -2 -18z m74
13 c0 -3 -4 -8 -10 -11 -5 -3 -10 -1 -10 4 0 6 5 11 10 11 6 0 10 -2 10 -4z
m-240 -16 c0 -5 -2 -10 -4 -10 -3 0 -8 5 -11 10 -3 6 -1 10 4 10 6 0 11 -4 11
-10z m130 -10 c0 -5 -2 -10 -4 -10 -3 0 -8 5 -11 10 -3 6 -1 10 4 10 6 0 11
-4 11 -10z m130 -10 c0 -5 -4 -10 -10 -10 -5 0 -10 5 -10 10 0 6 5 10 10 10 6
0 10 -4 10 -10z m-190 -4 c0 -3 -4 -8 -10 -11 -5 -3 -10 -1 -10 4 0 6 5 11 10
11 6 0 10 -2 10 -4z m150 -6 c0 -5 -4 -10 -10 -10 -5 0 -10 5 -10 10 0 6 5 10
10 10 6 0 10 -4 10 -10z m-40 -20 c0 -5 -2 -10 -4 -10 -3 0 -8 5 -11 10 -3 6
-1 10 4 10 6 0 11 -4 11 -10z m-7158 -147 c23 -21 23 -55 -1 -77 -26 -24 -62
-17 -80 15 -13 24 -13 29 2 53 20 30 52 34 79 9z m2075 -115 c-3 -7 -5 -2 -5
12 0 14 2 19 5 13 2 -7 2 -19 0 -25z m6503 -10 c16 -18 53 -78 80 -133 72
-145 96 -304 67 -444 -14 -64 -34 -81 -72 -61 -23 12 -26 19 -20 45 36 178 -5
371 -114 529 -37 53 -38 59 -8 79 30 22 32 21 67 -15z m-6643 -20 c-3 -7 -5
-2 -5 12 0 14 2 19 5 13 2 -7 2 -19 0 -25z m5988 22 c-3 -5 -14 -10 -23 -10
-15 0 -15 2 -2 10 20 13 33 13 25 0z m-6034 -28 c-6 -2 -9 -8 -5 -13 3 -5 -1
-9 -9 -9 -10 0 -13 8 -9 25 4 21 7 23 19 13 10 -8 11 -14 4 -16z m-64 -4 c-3
-8 -6 -5 -6 6 -1 11 2 17 5 13 3 -3 4 -12 1 -19z m1885 -130 c-2 -79 -4 -144
-5 -145 -2 -1 -83 -20 -182 -43 -99 -23 -182 -44 -184 -46 -12 -12 13 -14 58
-6 55 10 65 7 27 -8 -37 -14 -114 -23 -96 -11 13 9 12 11 -2 16 -18 7 -98 -12
-258 -62 -63 -20 -119 -36 -123 -35 -8 2 -163 -38 -237 -62 -44 -14 -44 -14
-12 -15 17 -1 32 -5 32 -9 0 -5 -10 -8 -22 -7 -13 1 -27 -4 -33 -11 -5 -7 -21
-15 -35 -17 -14 -2 -37 -9 -51 -15 -15 -6 -45 -16 -68 -22 -23 -6 -49 -14 -57
-17 -12 -4 -14 20 -14 155 l0 161 53 15 c28 8 122 33 207 56 85 23 236 63 335
90 99 27 248 67 330 89 83 22 186 51 230 65 122 37 112 48 107 -116z m2119
105 c111 -49 156 -123 170 -279 6 -56 9 -135 7 -175 l-3 -72 -43 -4 c-65 -6
-195 -41 -211 -58 -12 -12 -4 -13 61 -8 86 6 122 -7 162 -59 41 -55 46 -97 46
-379 0 -245 -1 -267 -17 -274 -10 -4 -79 -25 -153 -47 -74 -21 -143 -42 -153
-45 -17 -5 -18 7 -15 246 3 233 2 251 -14 251 -14 0 -294 -73 -370 -96 -17 -5
-18 -26 -18 -254 l0 -248 -32 -11 c-18 -5 -80 -22 -138 -36 -58 -14 -122 -32
-143 -40 -20 -8 -40 -15 -43 -15 -3 0 -4 152 -2 338 3 328 4 338 26 379 12 23
36 58 52 77 l30 34 4 174 c2 145 6 184 24 239 45 137 142 245 259 289 32 12
123 39 203 61 163 44 233 46 311 12z m-4001 -9 c0 -14 -3 -14 -15 -4 -8 7 -15
14 -15 16 0 2 7 4 15 4 8 0 15 -7 15 -16z m6488 -94 c91 -138 117 -223 117
-385 0 -86 -4 -117 -18 -142 -10 -18 -20 -33 -23 -33 -3 0 -2 5 1 10 6 10 -5
13 -42 10 -18 -1 -21 3 -18 27 14 108 14 139 5 199 -20 125 -74 249 -152 347
l-22 28 29 23 c28 22 31 23 52 7 12 -9 44 -50 71 -91z m-6663 58 c13 -2 5 -8
-25 -15 -39 -10 -43 -10 -26 2 12 9 16 21 12 32 -5 16 -5 16 7 2 7 -9 21 -18
32 -21z m90 12 c-3 -5 -13 -10 -21 -10 -8 0 -12 5 -9 10 3 6 13 10 21 10 8 0
12 -4 9 -10z m-240 -20 c3 -5 -1 -10 -9 -10 -9 0 -16 5 -16 10 0 6 4 10 9 10
6 0 13 -4 16 -10z m65 -21 c0 -5 -4 -9 -10 -9 -5 0 -10 7 -10 16 0 8 5 12 10
9 6 -3 10 -10 10 -16z m-180 -29 c0 -21 -16 -35 -24 -22 -8 13 5 53 15 46 5
-3 9 -14 9 -24z m140 20 c0 -5 -4 -10 -10 -10 -5 0 -10 5 -10 10 0 6 5 10 10
10 6 0 10 -4 10 -10z m5940 -16 c-53 -17 -241 -63 -288 -71 -27 -4 -31 -3 -26
11 4 9 14 16 24 14 9 -2 24 2 32 9 8 7 30 14 49 17 19 2 47 9 64 16 16 6 38 9
50 6 11 -3 27 -1 35 4 8 5 35 9 60 9 l45 0 -45 -15z m-6020 -4 c-8 -5 -19 -10
-25 -10 -5 0 -3 5 5 10 8 5 20 10 25 10 6 0 3 -5 -5 -10z m-1446 -46 c36 -36
9 -94 -44 -94 -48 0 -66 54 -30 90 24 24 53 26 74 4z m7891 -8 c39 -17 47 -29
13 -21 -32 8 -142 -19 -283 -70 -182 -66 -473 -152 -830 -245 -44 -12 -84 -25
-90 -31 -18 -18 -25 -8 -25 36 0 43 1 45 38 54 107 29 447 121 677 183 445
121 438 120 500 94z m-6645 0 c0 -3 -4 -8 -10 -11 -5 -3 -10 -1 -10 4 0 6 5
11 10 11 6 0 10 -2 10 -4z m-60 -18 c0 -8 -30 -12 -57 -9 -7 1 -13 -6 -13 -15
0 -13 -3 -14 -14 -4 -8 6 -13 17 -10 23 5 13 94 18 94 5z m930 -115 l0 -128
-188 -52 c-103 -29 -232 -64 -287 -79 -209 -55 -372 -106 -415 -131 -67 -40
-137 -118 -178 -202 l-37 -75 -5 -275 c-3 -152 -7 -555 -8 -896 -2 -423 -6
-621 -14 -626 -7 -5 -7 -9 1 -13 16 -10 13 -29 -3 -23 -12 5 -14 -2 -11 -31 1
-20 4 -37 5 -37 1 0 4 -62 7 -137 3 -92 1 -144 -7 -158 -7 -14 -8 -26 -2 -33
5 -7 10 -118 11 -247 1 -129 4 -246 8 -260 5 -20 3 -23 -8 -12 -20 19 -29 15
-29 -14 0 -19 4 -25 15 -20 8 3 15 1 15 -3 0 -5 -7 -11 -15 -15 -8 -3 -15 -14
-15 -25 0 -22 -55 -35 -73 -17 -7 9 -16 6 -33 -10 -14 -15 -29 -21 -43 -17
-11 3 -36 -2 -55 -11 -19 -9 -41 -16 -50 -16 -15 0 -16 136 -16 1543 0 1709
-4 1599 65 1691 74 96 154 131 530 231 224 60 463 124 660 179 88 25 163 45
168 45 4 1 7 -56 7 -126z m-743 85 c-3 -7 -5 -2 -5 12 0 14 2 19 5 13 2 -7 2
-19 0 -25z m-297 12 c0 -5 -5 -10 -11 -10 -5 0 -7 5 -4 10 3 6 8 10 11 10 2 0
4 -4 4 -10z m6037 4 c-3 -3 -12 -4 -19 -1 -8 3 -5 6 6 6 11 1 17 -2 13 -5z
m-6087 -20 c0 -8 -5 -12 -10 -9 -6 4 -17 1 -25 -5 -8 -7 -15 -9 -15 -5 0 9 31
34 43 35 4 0 7 -7 7 -16z m286 -21 c-11 -11 -17 4 -9 23 7 18 8 18 11 1 2 -10
1 -21 -2 -24z m5601 20 c-4 -3 -1 -13 5 -22 10 -13 9 -13 -7 1 -14 12 -25 14
-35 8 -8 -5 -25 -10 -37 -10 -12 0 -28 -6 -35 -13 -12 -12 -64 -14 -75 -4 -2
3 22 13 54 22 32 9 63 19 68 20 19 6 68 5 62 -2z m118 -1 c-2 -3 -22 -8 -44
-12 -27 -5 -38 -4 -35 4 2 6 22 11 44 11 22 1 37 -1 35 -3z m-5852 -22 c3 -11
1 -20 -4 -20 -5 0 -9 9 -9 20 0 11 2 20 4 20 2 0 6 -9 9 -20z m32 0 c3 -5 1
-10 -4 -10 -6 0 -11 5 -11 10 0 6 2 10 4 10 3 0 8 -4 11 -10z m35 0 c0 -5 -2
-10 -4 -10 -3 0 -8 5 -11 10 -3 6 -1 10 4 10 6 0 11 -4 11 -10z m3460 -145
l-5 -139 -85 -24 c-47 -13 -161 -46 -255 -74 -93 -28 -180 -53 -192 -55 -23
-5 -23 -8 -23 -160 0 -139 2 -154 16 -149 9 4 125 33 258 66 132 33 249 63
259 66 16 5 17 -6 17 -133 l0 -138 -92 -24 c-143 -36 -437 -119 -448 -126 -11
-7 -14 -195 -3 -246 6 -32 7 -33 13 -9 6 23 22 29 270 95 l265 71 3 -128 c1
-72 -2 -136 -7 -147 -6 -10 -31 -24 -58 -30 -26 -7 -165 -45 -308 -86 -143
-41 -281 -77 -306 -80 -101 -15 -174 35 -204 139 -13 46 -15 96 -10 323 3 147
5 348 4 445 -2 233 20 319 103 413 72 83 130 107 483 199 116 31 230 62 255
70 25 7 47 11 50 7 3 -3 3 -69 0 -146z m-3570 124 c0 -5 -4 -9 -10 -9 -5 0
-10 7 -10 16 0 8 5 12 10 9 6 -3 10 -10 10 -16z m-60 -19 c0 -5 -5 -10 -11
-10 -5 0 -7 5 -4 10 3 6 8 10 11 10 2 0 4 -4 4 -10z m-120 -30 c0 -5 -2 -10
-4 -10 -3 0 -8 5 -11 10 -3 6 -1 10 4 10 6 0 11 -4 11 -10z m5699 -10 c-26
-13 -69 -21 -69 -11 0 12 12 16 52 18 20 0 26 -2 17 -7z m-113 -21 c4 -7 -1
-9 -15 -4 -12 3 -21 2 -21 -4 0 -5 -24 -17 -52 -26 -29 -9 -59 -18 -66 -21 -8
-2 -12 2 -10 8 3 7 10 14 16 14 7 1 14 3 17 4 9 4 25 7 45 9 11 0 20 7 20 14
0 15 57 20 66 6z m-6495 -159 c16 -13 18 -18 7 -14 -28 10 -83 -14 -122 -53
l-36 -36 0 32 c0 73 96 118 151 71z m6439 -48 l0 -39 -81 -17 c-44 -9 -82 -23
-84 -29 -2 -7 -7 -30 -11 -52 -6 -37 -8 -38 -14 -15 -5 14 -8 52 -9 86 l-1 60
78 21 c115 32 122 31 122 -15z m-3003 -67 c34 -10 61 -27 81 -49 52 -59 57
-90 57 -331 0 -204 -2 -223 -21 -265 -26 -53 -60 -91 -117 -127 l-42 -27 48
-7 c115 -18 131 -53 135 -310 l3 -196 -143 -41 c-79 -23 -152 -42 -163 -44
-19 -3 -20 4 -25 187 -3 122 -9 198 -17 211 -20 35 -79 57 -136 51 -27 -4 -55
-11 -61 -16 -7 -6 -47 -18 -89 -27 l-77 -17 -2 -246 -3 -246 -135 -36 c-74
-20 -147 -41 -161 -47 -15 -6 -30 -8 -33 -5 -3 4 -6 316 -6 695 l0 688 23 10
c38 16 698 193 757 203 50 8 77 7 127 -8z m3711 -725 c-2 -292 -1 -530 3 -530
3 0 9 4 15 9 10 10 124 48 254 84 l85 24 3 -151 c1 -82 0 -156 -2 -162 -5 -14
-26 -21 -216 -69 -80 -21 -148 -40 -152 -44 -3 -3 -9 -152 -13 -331 -6 -319
-10 -381 -23 -378 -4 1 -33 -6 -65 -16 -33 -10 -69 -19 -81 -20 -13 -2 -27 -6
-33 -9 -5 -3 -22 -8 -37 -11 -16 -3 -39 -12 -52 -21 -21 -13 -23 -21 -18 -54
4 -24 2 -41 -5 -45 -8 -5 -11 30 -12 121 -4 282 4 2038 8 2043 7 8 296 88 321
89 l23 1 -3 -530z m69 468 c-2 -13 -4 -3 -4 22 0 25 2 35 4 23 2 -13 2 -33 0
-45z m683 -1139 c0 -1026 -2 -1168 -16 -1223 -43 -166 -178 -302 -354 -357
-62 -19 -309 -86 -358 -96 l-22 -5 2 182 3 183 87 23 c48 13 106 33 129 45 63
32 136 105 166 168 l28 56 3 1047 2 1048 68 19 c85 26 245 69 255 70 4 1 7
-521 7 -1160z m-7965 1101 c21 -17 151 -142 289 -278 l251 -247 -3 -100 c-2
-55 -6 -102 -8 -104 -4 -4 -77 63 -257 239 -76 74 -142 137 -148 138 -21 8 -7
20 35 31 24 6 46 17 49 25 8 20 -35 46 -64 39 -23 -5 -23 -5 -5 9 23 18 15 47
-15 55 -15 4 -17 8 -8 14 8 4 20 3 29 -4 13 -11 13 -10 1 5 -7 10 -17 15 -22
12 -5 -3 -19 2 -31 10 -19 14 -24 13 -52 -6 l-31 -21 30 32 30 33 -35 -7 -35
-7 19 21 c19 21 19 21 -2 21 -12 0 -22 -5 -22 -12 0 -6 -3 -9 -6 -6 -3 4 2 17
10 31 16 23 15 25 -19 60 -20 21 -41 37 -47 37 -5 0 6 -15 26 -33 26 -23 35
-37 31 -50 -8 -18 -25 -23 -25 -7 0 6 5 10 11 10 5 0 7 5 3 12 -6 9 -9 9 -12
0 -2 -7 -8 -12 -14 -12 -5 0 -7 8 -4 18 4 12 -4 23 -27 36 -29 17 -30 19 -12
27 35 14 51 10 90 -21z m2220 -38 c62 -33 109 -100 126 -180 7 -31 13 -117 13
-191 l1 -134 -82 -18 c-44 -10 -98 -27 -120 -37 l-38 -20 75 4 c97 7 143 -17
180 -91 25 -49 25 -54 28 -334 2 -159 0 -287 -5 -292 -10 -10 -241 -75 -301
-85 l-39 -6 5 245 5 245 -42 -9 c-61 -13 -321 -88 -332 -94 -5 -4 -9 -107 -9
-245 l0 -239 -37 -10 c-201 -56 -288 -82 -297 -91 -5 -5 -16 -10 -24 -10 -11
0 -13 58 -10 338 l3 337 26 55 c14 31 40 72 58 92 l31 36 0 149 c0 225 39 341
151 448 68 65 113 86 269 127 209 55 276 57 365 10z m4342 -58 l23 -6 -23 -17
c-12 -10 -57 -37 -100 -60 -42 -23 -82 -51 -87 -61 -6 -10 -10 -39 -10 -65 0
-28 -4 -44 -10 -40 -5 3 -10 0 -10 -7 -1 -20 -17 11 -24 49 -15 69 42 166 118
199 33 14 87 18 123 8z m2151 -124 c2 -47 0 -95 -3 -107 -5 -22 -7 -21 -48 20
-73 73 -138 127 -156 127 -9 -1 -42 -7 -73 -14 l-58 -14 0 32 c0 18 3 36 7 40
4 3 79 5 167 4 l161 -3 3 -85z m-8628 56 c0 -2 -8 -10 -17 -17 -16 -13 -17
-12 -4 4 13 16 21 21 21 13z m50 -56 c0 -5 -5 -10 -11 -10 -5 0 -7 5 -4 10 3
6 8 10 11 10 2 0 4 -4 4 -10z m25 -60 c-3 -5 -12 -10 -18 -10 -7 0 -6 4 3 10
19 12 23 12 15 0z m-185 -171 c46 -28 578 -560 565 -565 -6 -2 -9 -44 -7 -106
l3 -103 -28 25 c-15 13 -156 153 -313 311 -157 157 -299 294 -317 303 -32 16
-32 16 -46 -10 l-14 -27 -12 33 c-21 60 9 125 69 149 39 15 62 13 100 -10z
m8168 -224 c-3 -3 -13 7 -23 22 l-17 28 23 -22 c12 -12 20 -25 17 -28z m-28
-15 c0 -5 -2 -10 -4 -10 -3 0 -8 5 -11 10 -3 6 -1 10 4 10 6 0 11 -4 11 -10z
m14 -34 c-3 -9 -10 -13 -15 -10 -5 3 -3 11 4 19 15 16 19 13 11 -9z m-1514
-140 l0 -144 -92 -22 c-51 -13 -183 -48 -293 -78 -110 -30 -207 -55 -215 -57
-8 -1 -27 -5 -42 -10 l-28 -7 0 -145 0 -145 23 6 c12 3 119 31 237 62 291 75
343 71 402 -31 21 -37 23 -53 26 -220 4 -203 -4 -262 -50 -345 -58 -104 -134
-172 -235 -210 -88 -33 -273 -82 -323 -85 -25 -2 -126 -26 -224 -54 -99 -28
-181 -49 -182 -48 -1 1 -4 64 -7 139 l-5 138 36 9 c21 5 152 39 292 74 140 35
277 75 304 87 64 30 76 61 76 185 0 84 -2 95 -18 95 -9 0 -116 -25 -236 -55
-120 -30 -236 -55 -258 -55 -131 0 -195 112 -205 356 -9 221 19 316 124 415
72 69 122 89 388 158 127 33 289 75 360 94 72 19 133 35 138 36 4 1 7 -64 7
-143z m1548 132 c-2 -6 -10 -14 -16 -16 -7 -2 -10 2 -6 12 7 18 28 22 22 4z
m52 -6 c0 -8 -43 -32 -57 -32 -8 0 41 39 50 40 4 0 7 -4 7 -8z m59 -59 c22
-20 37 -41 34 -46 -3 -6 -1 -7 5 -3 15 9 522 -481 522 -505 0 -11 -492 -500
-511 -507 -5 -2 -9 3 -9 12 0 9 7 16 15 16 8 0 15 5 15 10 0 6 -4 10 -10 10
-5 0 -10 6 -10 13 0 6 -4 18 -9 26 -8 12 -12 12 -24 2 -10 -8 -17 -9 -22 -1
-8 13 3 30 21 30 16 0 19 16 5 25 -6 3 -14 -3 -20 -12 -8 -14 -12 -15 -22 -6
-10 10 -6 14 15 23 27 10 28 30 0 30 -8 0 -14 7 -14 15 0 8 -4 15 -9 15 -5 0
-11 8 -14 18 -3 9 -14 29 -23 44 -17 25 -17 27 1 45 18 18 19 17 11 -2 -12
-33 -12 -39 4 -40 8 0 14 -7 12 -14 -3 -13 24 -55 36 -57 22 -3 42 -18 38 -30
-6 -15 10 -29 18 -15 9 15 -24 70 -38 65 -24 -9 -28 14 -5 27 17 9 23 8 30 -2
6 -10 11 -11 19 -3 9 9 4 15 -19 25 -16 7 -32 20 -35 29 -3 8 -9 21 -12 28 -3
6 1 12 9 12 8 0 18 -10 22 -22 6 -20 8 -21 12 -5 9 34 -4 48 -32 37 -38 -15
-42 -13 -54 20 -11 34 2 41 19 10 6 -11 15 -18 21 -15 5 4 1 24 -12 48 -37 72
-39 76 -39 87 0 5 7 10 15 10 8 0 12 -6 9 -14 -3 -8 4 -16 20 -20 18 -4 26
-13 26 -29 -1 -21 -1 -21 -15 -3 -19 25 -30 14 -15 -14 9 -17 14 -19 26 -9 11
9 17 9 29 -1 9 -7 14 -18 11 -25 -2 -6 5 -22 15 -36 10 -13 19 -19 19 -13 0 6
-3 14 -7 18 -5 4 -8 11 -8 14 -2 19 -19 58 -31 70 -13 12 -19 47 -15 80 1 6
-5 12 -14 12 -18 0 -20 -11 -4 -27 8 -8 8 -13 0 -17 -6 -4 -15 4 -21 18 -5 14
-14 26 -19 26 -5 0 -17 14 -25 32 -20 39 -20 44 -1 28 11 -9 19 -10 27 -2 13
13 0 35 -18 28 -19 -7 -18 4 3 19 14 11 19 7 35 -23 10 -20 18 -42 18 -49 0
-7 7 -13 15 -13 19 0 19 -2 -10 56 -14 27 -25 58 -25 69 0 11 -9 31 -20 45
-22 28 -25 40 -10 40 6 0 10 -7 10 -15 0 -8 7 -15 15 -15 18 0 19 12 4 27 -8
8 -2 14 20 24 35 16 36 18 16 45 -18 24 -19 34 -2 34 6 0 20 7 30 15 15 10 17
18 8 32 -10 17 -10 16 -11 -4 0 -13 -4 -23 -9 -23 -5 0 -16 -3 -25 -6 -10 -4
-16 -1 -16 9 0 8 -5 17 -12 19 -7 3 -8 9 -3 18 6 10 10 8 17 -10 6 -17 12 -20
19 -13 8 8 8 17 0 31 -16 29 -14 42 6 42 13 0 14 3 6 11 -16 16 -43 3 -43 -20
0 -11 -4 -23 -10 -26 -17 -10 -11 35 6 53 12 12 13 17 4 20 -7 3 -16 -1 -20
-8 -5 -9 -9 -9 -14 -1 -4 6 4 15 18 21 28 10 35 30 12 30 -8 0 -26 -13 -39
-30 -30 -35 -37 -38 -30 -12 2 10 18 27 35 36 23 14 27 21 18 30 -9 8 -14 8
-17 -1 -3 -7 -9 -13 -15 -13 -6 0 -6 6 2 15 18 21 25 19 69 -22z m-89 -3 c0
-5 -2 -10 -4 -10 -3 0 -8 5 -11 10 -3 6 -1 10 4 10 6 0 11 -4 11 -10z m-22
-45 c-3 -3 -9 2 -12 12 -6 14 -5 15 5 6 7 -7 10 -15 7 -18z m12 -35 c0 -5 -4
-10 -10 -10 -5 0 -10 5 -10 10 0 6 5 10 10 10 6 0 10 -4 10 -10z m38 -10 c-11
-17 -10 -22 2 -30 8 -5 11 -12 8 -16 -8 -7 -38 19 -38 33 0 11 21 33 32 33 5
0 3 -9 -4 -20z m-8259 -20 c56 -26 591 -554 591 -584 0 -14 -76 56 -257 236
-243 241 -334 318 -374 318 -30 0 -77 -52 -84 -92 -8 -40 -19 -49 -29 -22 -20
53 7 122 58 147 40 20 43 20 95 -3z m8211 -4 c0 -3 -4 -8 -10 -11 -5 -3 -10
-1 -10 4 0 6 5 11 10 11 6 0 10 -2 10 -4z m20 -31 c0 -8 -4 -15 -10 -15 -5 0
-10 7 -10 15 0 8 5 15 10 15 6 0 10 -7 10 -15z m-30 -14 c0 -6 -4 -13 -10 -16
-5 -3 -10 1 -10 9 0 9 5 16 10 16 6 0 10 -4 10 -9z m80 1 c0 -4 -9 -13 -20
-20 -23 -14 -26 -8 -7 13 13 16 27 19 27 7z m30 -30 c0 -4 -6 -14 -12 -20 -10
-10 -8 -14 10 -18 27 -8 29 -24 2 -24 -11 0 -20 -4 -20 -10 0 -17 -37 -11 -42
8 -6 23 1 52 13 52 5 0 7 -11 3 -25 -5 -19 -2 -25 10 -25 14 0 16 6 10 35 -5
28 -3 35 10 35 9 0 16 -4 16 -8z m-80 -6 c0 -11 -19 -15 -25 -6 -3 5 1 10 9
10 9 0 16 -2 16 -4z m-6 -61 c-4 -8 -8 -15 -10 -15 -2 0 -4 7 -4 15 0 8 4 15
10 15 5 0 7 -7 4 -15z m-44 -5 c0 -5 -4 -10 -10 -10 -5 0 -10 5 -10 10 0 6 5
10 10 10 6 0 10 -4 10 -10z m15 -30 c3 -5 1 -10 -4 -10 -6 0 -11 5 -11 10 0 6
2 10 4 10 3 0 8 -4 11 -10z m45 0 c0 -5 -2 -10 -4 -10 -3 0 -8 5 -11 10 -3 6
-1 10 4 10 6 0 11 -4 11 -10z m-2909 -52 c94 -55 119 -120 126 -323 l6 -150
-94 -24 c-159 -39 -239 -87 -106 -62 69 13 113 1 154 -40 63 -61 67 -86 60
-411 -3 -159 -8 -292 -10 -294 -2 -2 -44 -14 -93 -25 -87 -21 -191 -50 -227
-64 -17 -7 -18 6 -15 254 2 143 2 261 1 261 -2 0 -85 -23 -185 -50 -101 -28
-196 -54 -213 -58 l-30 -8 -5 -249 -5 -249 -35 -13 c-19 -6 -82 -26 -140 -43
-127 -38 -134 -41 -138 -69 -2 -11 -8 -21 -13 -21 -5 0 -10 -12 -10 -27 -1
-19 -4 -14 -10 17 -4 25 -8 198 -8 386 -1 374 3 405 58 481 29 40 29 40 33
214 3 171 4 175 34 239 62 131 165 222 294 260 38 11 137 38 222 60 186 49
275 51 349 8z m2899 22 c0 -5 -4 -10 -10 -10 -5 0 -10 5 -10 10 0 6 5 10 10
10 6 0 10 -4 10 -10z m-45 -10 c3 -5 2 -10 -4 -10 -5 0 -13 5 -16 10 -3 6 -2
10 4 10 5 0 13 -4 16 -10z m75 -10 c0 -5 -4 -10 -10 -10 -5 0 -10 5 -10 10 0
6 5 10 10 10 6 0 10 -4 10 -10z m-35 -20 c3 -5 -3 -10 -15 -10 -12 0 -18 5
-15 10 3 6 10 10 15 10 5 0 12 -4 15 -10z m-57 -25 c-3 -3 -9 2 -12 12 -6 14
-5 15 5 6 7 -7 10 -15 7 -18z m112 9 c0 -8 -4 -12 -10 -9 -5 3 -10 10 -10 16
0 5 5 9 10 9 6 0 10 -7 10 -16z m-30 -13 c0 -6 -4 -13 -10 -16 -5 -3 -10 1
-10 9 0 9 5 16 10 16 6 0 10 -4 10 -9z m-50 -21 c0 -5 -4 -10 -10 -10 -5 0
-10 5 -10 10 0 6 5 10 10 10 6 0 10 -4 10 -10z m30 -31 c0 -5 -4 -9 -10 -9 -5
0 -10 7 -10 16 0 8 5 12 10 9 6 -3 10 -10 10 -16z m-40 -14 c7 -8 8 -15 2 -15
-5 0 -15 7 -22 15 -7 8 -8 15 -2 15 5 0 15 -7 22 -15z m40 -35 c0 -5 -4 -10
-10 -10 -5 0 -10 5 -10 10 0 6 5 10 10 10 6 0 10 -4 10 -10z m-35 -40 c3 -5 1
-10 -4 -10 -6 0 -11 5 -11 10 0 6 2 10 4 10 3 0 8 -4 11 -10z m55 0 c0 -5 -4
-10 -10 -10 -5 0 -10 5 -10 10 0 6 5 10 10 10 6 0 10 -4 10 -10z m-4027 -300
c-10 -9 -293 -80 -315 -80 -17 0 -18 -34 -18 -569 l0 -568 -82 -22 c-46 -13
-111 -31 -146 -42 -34 -10 -67 -19 -72 -19 -7 0 -10 193 -10 563 1 534 0 562
-17 559 -10 -2 -72 -19 -138 -38 -66 -20 -128 -38 -137 -40 -17 -5 -18 6 -18
140 l0 144 33 11 c27 8 226 62 802 214 l120 32 3 -139 c1 -77 -1 -142 -5 -146z
m4007 260 c0 -5 -4 -10 -10 -10 -5 0 -10 5 -10 10 0 6 5 10 10 10 6 0 10 -4
10 -10z m-8217 -33 c49 -30 577 -557 577 -576 0 -19 -14 -7 -315 290 -143 141
-264 251 -282 258 -28 12 -36 11 -58 -3 -13 -9 -32 -31 -41 -48 -31 -60 -54
-69 -54 -21 0 55 60 123 109 123 14 0 43 -10 64 -23z m8237 3 c0 -5 -4 -10
-10 -10 -5 0 -10 5 -10 10 0 6 5 10 10 10 6 0 10 -4 10 -10z m-75 -20 c3 -5 1
-10 -4 -10 -6 0 -11 5 -11 10 0 6 2 10 4 10 3 0 8 -4 11 -10z m55 -22 c0 -5
-4 -8 -10 -8 -5 0 -10 10 -10 23 0 18 2 19 10 7 5 -8 10 -18 10 -22z m-32 -26
c2 -7 -2 -10 -12 -6 -9 3 -16 11 -16 16 0 13 23 5 28 -10z m52 -6 c0 -3 -4 -8
-10 -11 -5 -3 -10 -1 -10 4 0 6 5 11 10 11 6 0 10 -2 10 -4z m10 -36 c0 -5 -7
-10 -15 -10 -8 0 -15 5 -15 10 0 6 7 10 15 10 8 0 15 -4 15 -10z m-30 -29 c0
-6 -4 -13 -10 -16 -5 -3 -10 1 -10 9 0 9 5 16 10 16 6 0 10 -4 10 -9z m72 -16
c0 -5 -5 -11 -11 -13 -6 -2 -11 4 -11 13 0 9 5 15 11 13 6 -2 11 -8 11 -13z
m23 -33 c0 -18 -20 -15 -23 4 -3 10 1 15 10 12 7 -3 13 -10 13 -16z m-99 -29
c-11 -11 -19 6 -11 24 8 17 8 17 12 0 3 -10 2 -21 -1 -24z m34 -23 c0 -5 -4
-10 -9 -10 -6 0 -13 5 -16 10 -3 6 1 10 9 10 9 0 16 -4 16 -10z m-5212 -157
l-3 -148 -75 -18 c-173 -41 -498 -130 -537 -147 -35 -15 -43 -24 -49 -55 -5
-30 3 -245 10 -252 1 -1 36 9 78 22 41 13 160 45 264 71 225 56 247 55 310
-10 59 -62 68 -106 61 -284 -10 -219 -39 -305 -139 -404 -68 -68 -144 -106
-283 -141 -306 -78 -525 -138 -559 -152 -21 -9 -42 -13 -46 -8 -4 4 -5 70 -2
145 4 128 6 137 26 142 11 4 142 38 290 77 148 39 287 79 308 90 59 30 79 80
76 187 -2 55 -7 86 -14 85 -6 -1 -110 -29 -231 -62 -232 -64 -264 -69 -326
-47 -50 18 -74 41 -106 101 -26 50 -26 51 -26 270 l0 220 33 67 c38 79 105
149 173 183 26 14 193 63 371 110 178 46 337 89 353 94 17 5 33 10 38 10 4 1
6 -65 5 -146z m5132 127 c0 -5 -2 -10 -4 -10 -3 0 -8 5 -11 10 -3 6 -1 10 4
10 6 0 11 -4 11 -10z m47 -9 c0 -11 -5 -17 -9 -15 -11 7 -10 34 1 34 6 0 9 -9
8 -19z m48 -1 c15 -17 16 -20 3 -20 -9 0 -18 9 -21 20 -3 11 -4 20 -3 20 2 0
11 -9 21 -20z m-6609 -172 c-2 -90 -5 -336 -5 -546 -1 -379 -1 -384 -22 -389
-13 -4 -18 -11 -14 -21 3 -8 0 -19 -7 -24 -19 -11 -48 -10 -48 3 0 5 5 7 12 3
6 -4 8 -3 5 4 -4 5 -15 8 -26 5 -10 -2 -25 3 -34 11 -8 9 -23 13 -31 10 -19
-7 -19 -9 -5 -32 8 -13 21 -17 43 -15 25 3 22 0 -14 -12 -59 -19 -80 -20 -54
0 10 8 14 15 7 15 -7 0 -10 7 -6 16 5 13 -1 15 -33 12 -37 -3 -39 -5 -42 -40
-3 -40 -26 -68 -43 -51 -6 6 -8 218 -7 568 l3 559 25 7 c166 47 277 78 288 78
10 1 12 -34 8 -161z m6574 117 c-7 -8 -17 -12 -23 -8 -6 4 -3 11 8 19 23 17
32 10 15 -11z m44 -34 c-6 -6 -24 19 -24 34 1 6 7 1 15 -9 8 -11 12 -22 9 -25z
m-84 13 c0 -8 -4 -12 -10 -9 -5 3 -10 10 -10 16 0 5 5 9 10 9 6 0 10 -7 10
-16z m160 -49 c0 -26 -34 -60 -49 -50 -18 10 -12 25 9 25 11 0 20 7 20 15 0 8
-5 15 -11 15 -5 0 -8 4 -5 8 11 18 36 8 36 -13z m-50 5 c0 -5 -7 -10 -15 -10
-8 0 -15 5 -15 10 0 6 7 10 15 10 8 0 15 -4 15 -10z m-80 -20 c0 -5 -2 -10 -4
-10 -3 0 -8 5 -11 10 -3 6 -1 10 4 10 6 0 11 -4 11 -10z m37 -22 c-3 -7 -5 -2
-5 12 0 14 2 19 5 13 2 -7 2 -19 0 -25z m-4350 -141 c-2 -23 -3 -1 -3 48 0 50
1 68 3 42 2 -26 2 -67 0 -90z m4263 123 c0 -5 -2 -10 -4 -10 -3 0 -8 5 -11 10
-3 6 -1 10 4 10 6 0 11 -4 11 -10z m60 0 c0 -5 -4 -10 -10 -10 -5 0 -10 5 -10
10 0 6 5 10 10 10 6 0 10 -4 10 -10z m57 -12 c-2 -12 -10 -24 -17 -26 -9 -3
-11 1 -7 12 4 10 7 22 7 27 0 5 4 9 10 9 5 0 8 -10 7 -22z m-8317 -58 l0 -50
-45 0 -45 0 0 50 0 50 45 0 45 0 0 -50z m8268 10 c-7 -10 -14 -18 -15 -16 -6
6 9 36 18 36 5 0 4 -9 -3 -20z m-48 -60 c0 -5 -4 -10 -10 -10 -5 0 -10 5 -10
10 0 6 5 10 10 10 6 0 10 -4 10 -10z m555 -207 c-5 -22 -10 -24 -60 -22 -43 2
-56 6 -61 21 -3 10 -9 16 -14 13 -4 -3 -11 2 -14 11 -4 10 -2 13 6 8 7 -5 9
-2 6 7 -4 11 2 15 21 14 14 0 25 5 24 11 -1 7 19 23 45 36 l47 24 3 -50 c2
-27 1 -61 -3 -73z m-8575 -44 c46 -28 368 -346 386 -382 17 -33 17 -170 1
-225 -14 -45 -58 -79 -112 -88 -58 -8 -84 9 -215 141 -52 52 -100 95 -106 95
-7 0 -14 6 -17 13 -2 6 -7 9 -11 6 -3 -3 9 -25 27 -50 26 -36 11 -26 -81 56
-165 147 -201 230 -146 337 51 99 190 148 274 97z m8398 -218 c80 -41 140
-125 148 -205 4 -37 3 -39 -7 -16 -35 77 -48 96 -91 134 -74 67 -190 93 -303
66 -54 -12 -55 -6 -4 21 81 41 177 41 257 0z m-1433 -76 c0 -27 -2 -93 -3
-146 l-2 -96 -72 -12 c-66 -11 -423 -98 -558 -137 -58 -16 -529 -139 -590
-153 -19 -5 -136 -36 -260 -69 -124 -34 -277 -72 -340 -87 -193 -43 -306 -82
-334 -115 -24 -29 -24 -29 -30 -7 -7 26 -8 337 -1 337 4 0 138 34 485 125
1526 399 1695 441 1701 425 3 -8 5 -37 4 -65z m1070 -35 c3 -5 1 -10 -4 -10
-6 0 -11 5 -11 10 0 6 2 10 4 10 3 0 8 -4 11 -10z m45 -10 c0 -5 -2 -10 -4
-10 -3 0 -8 5 -11 10 -3 6 -1 10 4 10 6 0 11 -4 11 -10z m84 -41 c33 -31 42
-46 38 -65 -2 -13 -9 -24 -14 -24 -6 0 -8 10 -5 21 6 23 -11 59 -28 59 -10 0
-45 35 -45 45 0 11 12 3 54 -36z m-69 1 c-3 -5 -10 -10 -16 -10 -5 0 -9 5 -9
10 0 6 7 10 16 10 8 0 12 -4 9 -10z m125 0 c0 -5 -2 -10 -4 -10 -3 0 -8 5 -11
10 -3 6 -1 10 4 10 6 0 11 -4 11 -10z m-164 -58 c-9 -8 -26 10 -26 26 1 15 2
15 15 -2 8 -11 13 -21 11 -24z m74 13 c0 -8 -7 -11 -20 -8 -16 4 -18 8 -9 19
13 16 29 10 29 -11z m-120 -31 c0 -8 -5 -12 -10 -9 -6 4 -8 11 -5 16 9 14 15
11 15 -7z m85 -4 c3 -5 -1 -10 -9 -10 -9 0 -16 5 -16 10 0 6 4 10 9 10 6 0 13
-4 16 -10z m85 -30 c0 -18 -19 -11 -30 11 -11 19 -10 20 9 9 12 -6 21 -15 21
-20z m-120 11 c0 -6 -4 -13 -10 -16 -5 -3 -10 1 -10 9 0 9 5 16 10 16 6 0 10
-4 10 -9z m420 -19 c0 -15 -2 -15 -10 -2 -13 20 -13 33 0 25 6 -3 10 -14 10
-23z m-350 4 c0 -8 -8 -14 -19 -13 -11 0 -17 6 -14 14 7 18 33 17 33 -1z m320
-30 c0 -5 -7 -1 -15 10 -8 10 -14 24 -14 29 0 6 6 1 14 -9 8 -11 15 -24 15
-30z m90 34 c13 -8 13 -10 -2 -10 -9 0 -20 5 -23 10 -8 13 5 13 25 0z m-170
-31 c6 -10 7 -19 2 -19 -5 0 -14 12 -20 26 -14 29 2 24 18 -7z m-340 -3 c0 -3
-4 -8 -10 -11 -5 -3 -10 -1 -10 4 0 6 5 11 10 11 6 0 10 -2 10 -4z m175 -7
c11 -17 -1 -21 -15 -4 -8 9 -8 15 -2 15 6 0 14 -5 17 -11z m75 -8 c0 -13 -7
-18 -25 -18 -14 0 -25 3 -25 7 0 5 32 25 48 29 1 1 2 -7 2 -18z m260 3 c0 -8
-4 -12 -10 -9 -5 3 -10 10 -10 16 0 5 5 9 10 9 6 0 10 -7 10 -16z m-450 -4 c0
-5 -4 -10 -10 -10 -5 0 -10 5 -10 10 0 6 5 10 10 10 6 0 10 -4 10 -10z m60 0
c0 -5 -4 -10 -10 -10 -5 0 -10 5 -10 10 0 6 5 10 10 10 6 0 10 -4 10 -10z
m353 -4 c6 -16 -2 -28 -14 -20 -12 7 -11 34 0 34 5 0 11 -6 14 -14z m-168 -6
c3 -5 -1 -10 -9 -10 -8 0 -18 5 -21 10 -3 6 1 10 9 10 8 0 18 -4 21 -10z m60
-10 c3 -5 1 -10 -4 -10 -6 0 -11 5 -11 10 0 6 2 10 4 10 3 0 8 -4 11 -10z m50
0 c3 -6 -1 -7 -9 -4 -18 7 -21 14 -7 14 6 0 13 -4 16 -10z m-390 -10 c3 -5 1
-10 -4 -10 -6 0 -11 5 -11 10 0 6 2 10 4 10 3 0 8 -4 11 -10z m175 -15 c0 -9
-6 -12 -15 -9 -8 4 -12 10 -9 15 8 14 24 10 24 -6z m133 -10 c-5 -13 -23 -22
-23 -11 0 15 14 35 21 31 4 -3 6 -12 2 -20z m-63 11 c0 -2 -7 -6 -15 -10 -8
-3 -15 -1 -15 4 0 6 7 10 15 10 8 0 15 -2 15 -4z m151 -19 c-10 -9 -11 -8 -5
6 3 10 9 15 12 12 3 -3 0 -11 -7 -18z m-275 -14 c-10 -10 -19 5 -10 18 6 11 8
11 12 0 2 -7 1 -15 -2 -18z m154 7 c0 -5 -2 -10 -4 -10 -3 0 -8 5 -11 10 -3 6
-1 10 4 10 6 0 11 -4 11 -10z m-70 -21 c0 -5 -7 -9 -15 -9 -15 0 -20 12 -9 23
8 8 24 -1 24 -14z m170 5 c0 -8 -4 -12 -10 -9 -5 3 -10 10 -10 16 0 5 5 9 10
9 6 0 10 -7 10 -16z m70 6 c0 -5 -4 -10 -10 -10 -5 0 -10 5 -10 10 0 6 5 10
10 10 6 0 10 -4 10 -10z m-195 -10 c3 -5 1 -10 -4 -10 -6 0 -11 5 -11 10 0 6
2 10 4 10 3 0 8 -4 11 -10z m-95 -21 c0 -6 -4 -7 -10 -4 -5 3 -10 11 -10 16 0
6 5 7 10 4 6 -3 10 -11 10 -16z m167 -1 c-3 -8 -6 -5 -6 6 -1 11 2 17 5 13 3
-3 4 -12 1 -19z m-7120 6 c-3 -3 -12 -4 -19 -1 -8 3 -5 6 6 6 11 1 17 -2 13
-5z m7198 -14 c3 -5 1 -10 -4 -10 -6 0 -11 5 -11 10 0 6 2 10 4 10 3 0 8 -4
11 -10z m-8565 -19 c26 -50 -9 -108 -58 -96 -15 4 -30 12 -34 18 -12 19 -9 72
4 85 20 20 76 15 88 -7z m8390 9 c0 -5 -5 -10 -11 -10 -5 0 -7 5 -4 10 3 6 8
10 11 10 2 0 4 -4 4 -10z m70 0 c0 -5 -4 -10 -10 -10 -5 0 -10 5 -10 10 0 6 5
10 10 10 6 0 10 -4 10 -10z m60 -20 c0 -5 -2 -10 -4 -10 -3 0 -8 5 -11 10 -3
6 -1 10 4 10 6 0 11 -4 11 -10z m-3912 -192 c-3 -32 -3 -32 -113 -60 -60 -16
-191 -50 -290 -77 -99 -27 -292 -79 -430 -115 -137 -36 -304 -80 -370 -99
l-120 -33 -3 -59 c-2 -38 -8 -62 -18 -70 -12 -9 -15 -28 -12 -88 2 -55 -1 -78
-9 -82 -10 -3 -13 35 -13 174 0 162 2 179 18 183 9 3 96 26 192 52 232 63
1153 304 1163 305 5 1 7 -13 5 -31z m-2968 -88 c0 -5 -4 -10 -10 -10 -5 0 -10
5 -10 10 0 6 5 10 10 10 6 0 10 -4 10 -10z m-1341 -112 l-1 -113 43 -37 c24
-20 40 -40 37 -43 -3 -4 -32 -9 -63 -12 -47 -5 -60 -3 -70 11 -11 14 -13 15
-19 1 -3 -8 -14 -15 -24 -15 -18 0 -20 10 -24 97 -6 138 -4 143 55 185 29 21
56 37 60 38 4 0 7 -51 6 -112z m1291 102 c0 -5 -5 -10 -11 -10 -5 0 -7 5 -4
10 3 6 8 10 11 10 2 0 4 -4 4 -10z m-160 -14 c0 -3 -4 -8 -10 -11 -5 -3 -10
-1 -10 4 0 6 5 11 10 11 6 0 10 -2 10 -4z m110 -6 c0 -5 -4 -10 -10 -10 -5 0
-10 5 -10 10 0 6 5 10 10 10 6 0 10 -4 10 -10z m135 -9 c-8 -13 -35 -15 -35
-2 0 5 8 11 18 13 21 5 26 2 17 -11z m-1700 -11 c3 -5 -10 -30 -30 -55 -19
-26 -35 -51 -35 -56 0 -6 -4 -7 -10 -4 -17 11 -11 71 11 99 20 26 53 34 64 16z
m1245 0 c0 -5 -4 -10 -10 -10 -5 0 -10 5 -10 10 0 6 5 10 10 10 6 0 10 -4 10
-10z m165 0 c3 -5 1 -10 -4 -10 -6 0 -11 5 -11 10 0 6 2 10 4 10 3 0 8 -4 11
-10z m245 -28 c0 -13 -3 -12 -15 4 -19 25 -19 40 0 24 8 -7 15 -20 15 -28z
m-61 4 c10 -12 8 -13 -8 -9 -12 3 -18 9 -15 14 7 12 10 11 23 -5z m-282 -2
c-3 -3 -12 -4 -19 -1 -8 3 -5 6 6 6 11 1 17 -2 13 -5z m63 2 c0 -3 -4 -8 -10
-11 -5 -3 -10 -1 -10 4 0 6 5 11 10 11 6 0 10 -2 10 -4z m-115 -15 c3 -5 1
-12 -5 -16 -5 -3 -10 1 -10 9 0 18 6 21 15 7z m280 -10 c-3 -6 -11 -8 -17 -5
-6 4 -5 9 3 15 16 10 23 4 14 -10z m-405 -1 c0 -5 -2 -10 -4 -10 -3 0 -8 5
-11 10 -3 6 -1 10 4 10 6 0 11 -4 11 -10z m80 -10 c0 -5 -2 -10 -4 -10 -3 0
-8 5 -11 10 -3 6 -1 10 4 10 6 0 11 -4 11 -10z m110 -10 c-24 -15 -37 -11 -16
5 11 8 22 12 25 9 3 -3 -1 -9 -9 -14z m170 10 c0 -5 -4 -10 -10 -10 -5 0 -10
5 -10 10 0 6 5 10 10 10 6 0 10 -4 10 -10z m-340 -31 c0 -5 -4 -9 -10 -9 -5 0
-10 7 -10 16 0 8 5 12 10 9 6 -3 10 -10 10 -16z m120 0 c0 -5 -4 -9 -10 -9 -5
0 -10 7 -10 16 0 8 5 12 10 9 6 -3 10 -10 10 -16z m130 11 c0 -5 -7 -10 -15
-10 -8 0 -15 5 -15 10 0 6 7 10 15 10 8 0 15 -4 15 -10z m40 0 c0 -5 -4 -10
-10 -10 -5 0 -10 5 -10 10 0 6 5 10 10 10 6 0 10 -4 10 -10z m-335 -19 c3 -5
1 -12 -5 -16 -5 -3 -10 1 -10 9 0 18 6 21 15 7z m133 -10 c3 -8 -1 -12 -9 -9
-7 2 -15 10 -17 17 -3 8 1 12 9 9 7 -2 15 -10 17 -17z m122 9 c0 -5 -6 -10
-14 -10 -7 0 -26 -7 -42 -15 -15 -8 -30 -12 -33 -10 -2 3 -2 6 0 8 64 38 89
46 89 27z m7279 -16 c12 -15 21 -33 21 -40 0 -42 -80 -61 -100 -23 -16 28 -4
68 23 79 32 13 34 12 56 -16z m-7449 -4 c0 -5 -9 -10 -20 -10 -11 0 -20 -7
-20 -16 0 -8 -5 -12 -10 -9 -17 11 9 35 48 44 1 1 2 -3 2 -9z m-120 -10 c0 -5
-4 -10 -10 -10 -5 0 -10 5 -10 10 0 6 5 10 10 10 6 0 10 -4 10 -10z m180 -10
c0 -5 -4 -10 -10 -10 -5 0 -10 5 -10 10 0 6 5 10 10 10 6 0 10 -4 10 -10z
m-150 -20 c0 -5 -4 -10 -10 -10 -5 0 -10 5 -10 10 0 6 5 10 10 10 6 0 10 -4
10 -10z m1888 -117 c-3 -26 -9 -29 -88 -49 -47 -12 -231 -61 -410 -109 -362
-98 -450 -111 -552 -81 -64 18 -126 61 -158 108 l-23 33 39 -36 c50 -47 86
-65 156 -78 74 -13 117 -6 391 68 122 33 310 83 417 111 107 28 200 53 205 55
22 8 26 4 23 -22z m4705 -72 l24 -29 -4 -454 c-4 -457 -11 -632 -23 -573 l-6
30 -8 -25 -7 -25 -9 28 c-5 16 -6 36 -3 44 4 11 2 14 -5 9 -7 -4 -8 2 -2 23 6
21 4 35 -7 50 -12 17 -15 95 -20 434 -4 304 -9 417 -18 430 -16 23 -8 54 18
72 30 21 42 19 70 -14z m-6492 -107 c29 -9 63 -23 74 -31 18 -12 8 -14 -92
-11 l-113 3 0 28 c0 25 3 27 38 27 21 0 63 -7 93 -16z m4999 -37 c-30 -30
-197 -193 -370 -363 -173 -170 -383 -374 -465 -454 -333 -321 -533 -516 -795
-776 l-275 -274 -464 463 c-255 254 -470 471 -478 483 -11 18 -11 28 0 60 l13
39 49 -3 c72 -5 159 -57 304 -183 42 -36 121 -112 176 -168 55 -56 125 -121
155 -144 30 -23 81 -65 113 -94 32 -29 68 -58 80 -64 29 -15 -42 59 -386 400
-158 157 -287 290 -287 296 0 5 5 4 12 -3 7 -7 16 -12 20 -12 16 0 7 23 -22
60 -28 36 -31 53 -7 45 7 -2 35 -6 62 -9 77 -8 215 -50 215 -66 0 -3 7 -7 15
-8 8 -1 22 -3 30 -4 8 -1 15 -5 15 -10 0 -5 5 -6 11 -2 7 4 10 1 7 -7 -3 -8
11 -21 34 -32 21 -11 38 -23 38 -28 0 -5 7 -9 15 -9 8 0 15 -5 15 -10 0 -6 11
-15 25 -20 14 -5 33 -25 42 -44 9 -19 20 -33 25 -29 5 3 16 -4 24 -16 9 -12
20 -19 25 -16 5 4 9 1 9 -5 0 -7 7 -9 17 -6 10 4 14 4 10 0 -3 -4 2 -14 12
-23 10 -9 20 -22 22 -30 6 -18 86 46 219 174 218 210 251 239 236 199 -6 -14
-4 -15 9 -4 11 9 12 15 5 20 -6 4 19 35 62 78 40 39 74 69 77 67 2 -3 -18 -25
-45 -49 -34 -32 -44 -45 -31 -46 9 0 17 -4 17 -10 0 -15 -30 -12 -30 3 -1 6
-7 -3 -15 -22 -19 -42 -19 -46 1 -27 8 9 22 16 30 16 8 0 14 5 14 10 0 6 10
10 22 10 20 0 20 1 5 18 -21 23 -22 33 -2 26 8 -4 15 -1 15 5 0 19 28 24 44 8
8 -8 12 -17 9 -21 -4 -3 1 -6 10 -6 9 0 23 16 32 35 17 34 17 34 42 18 24 -16
26 -16 38 0 7 9 17 17 24 17 22 0 60 31 54 46 -7 19 -23 18 -23 -1 0 -8 -9
-15 -20 -15 -11 0 -20 -3 -20 -7 0 -5 -11 -13 -25 -20 -20 -9 -25 -8 -25 3 0
8 4 14 8 14 5 0 35 20 68 45 58 44 84 55 84 35 0 -5 -9 -10 -20 -10 -24 0 -27
-25 -5 -38 20 -11 10 -38 -16 -45 -22 -6 -26 -27 -4 -27 20 0 19 -20 -2 -36
-10 -7 -13 -14 -7 -14 18 0 47 37 35 45 -16 9 -13 25 4 25 8 0 15 -8 15 -17 0
-13 13 -4 43 28 23 26 58 57 77 70 19 13 44 31 54 41 11 10 23 18 26 18 4 0
20 11 36 25 16 14 32 25 37 25 4 0 7 5 7 10 0 6 -7 10 -15 10 -9 0 -12 6 -9
15 4 8 13 15 21 15 11 0 13 7 9 25 -4 14 -2 25 4 25 5 0 10 -7 10 -15 0 -8 6
-15 14 -15 8 0 16 7 20 15 8 21 24 19 31 -5 8 -24 24 -25 51 -5 18 14 17 14
-11 9 -26 -5 -31 -3 -31 15 0 14 4 17 10 11 17 -17 28 -11 21 10 -8 26 -1 25
26 -2 15 -16 23 -19 26 -10 3 6 12 12 20 12 9 0 13 6 10 14 -3 8 1 17 9 20 8
3 14 -1 14 -9 0 -8 4 -15 8 -15 16 0 30 23 25 39 -4 12 -3 13 5 3 8 -11 23 -8
82 18 39 17 113 47 163 65 134 49 279 115 300 136 10 11 21 19 25 19 4 0 -18
-24 -48 -53z m-5206 12 c3 -17 6 -37 6 -43 0 -7 -48 -36 -107 -65 -89 -45
-120 -67 -188 -135 -65 -65 -90 -98 -122 -166 -23 -47 -47 -111 -54 -143 -13
-63 -26 -83 -23 -36 1 16 -2 26 -7 23 -5 -3 -9 1 -10 8 0 10 -2 10 -6 0 -2 -6
-10 -9 -15 -6 -6 4 -17 -1 -24 -11 -11 -15 -12 -13 -8 21 26 191 113 346 253
448 71 53 241 132 287 135 6 1 14 -13 18 -30z m6243 -95 c133 -54 273 -219
308 -364 23 -93 23 -246 0 -325 -86 -300 -420 -480 -720 -390 -119 36 -237
121 -306 222 -39 57 -79 164 -78 211 0 20 3 30 6 22 12 -29 32 -41 58 -34 14
3 25 11 25 18 1 6 11 -12 23 -39 36 -83 73 -139 117 -179 203 -183 464 -180
653 6 136 134 174 355 90 522 -42 84 -96 149 -164 195 -37 25 -54 41 -40 38
75 -18 68 54 -8 98 -46 26 -28 26 36 -1z m-6979 -106 l3 -48 -50 0 -51 0 0 51
0 50 48 -3 47 -3 3 -47z m5117 22 c3 -5 1 -10 -4 -10 -6 0 -11 5 -11 10 0 6 2
10 4 10 3 0 8 -4 11 -10z m-4110 -48 c161 -64 266 -178 296 -320 13 -65 7
-219 -9 -248 -9 -15 -10 -8 -7 36 5 65 -5 90 -29 71 -8 -7 -24 -10 -35 -6 -19
6 -81 -20 -89 -37 -2 -4 -10 -4 -18 -1 -8 3 -14 1 -14 -4 0 -5 -13 -8 -30 -5
-16 2 -27 8 -24 13 3 5 -1 9 -9 9 -11 0 -13 -7 -10 -21 5 -19 3 -21 -20 -15
-15 3 -27 3 -27 -1 0 -5 -13 -17 -29 -28 -24 -16 -28 -22 -18 -34 10 -12 9
-13 -10 -3 -28 15 -36 15 -30 0 3 -9 -11 -13 -49 -14 -30 -1 -64 -8 -76 -16
-13 -8 -48 -18 -78 -21 -30 -4 -56 -11 -58 -17 -2 -5 -10 -10 -18 -10 -8 0
-14 -4 -14 -10 0 -5 -5 -10 -11 -10 -5 0 -7 4 -4 10 4 6 -1 7 -11 3 -11 -4
-22 1 -30 12 -10 14 -14 15 -14 4 1 -24 69 -109 106 -131 48 -28 42 -34 -7 -6
-58 32 -123 108 -160 186 -26 53 -33 82 -37 152 -7 136 17 217 97 317 112 142
322 206 476 145z m4325 -2 c0 -5 -4 -10 -10 -10 -5 0 -10 5 -10 10 0 6 5 10
10 10 6 0 10 -4 10 -10z m2803 -493 c-7 -15 -12 36 -16 173 -4 107 -5 204 -3
215 3 11 6 38 7 60 1 22 7 -65 12 -193 6 -149 6 -241 0 -255z m-3218 463 c3
-5 1 -10 -4 -10 -6 0 -11 5 -11 10 0 6 2 10 4 10 3 0 8 -4 11 -10z m-694 -79
c-27 -31 -97 -103 -155 -161 l-106 -104 -88 84 c-49 47 -91 90 -94 95 -4 6 11
10 38 10 24 0 44 4 44 8 0 5 8 6 19 2 11 -3 44 8 82 28 36 19 80 38 99 42 19
4 49 14 65 23 33 17 73 27 116 28 l29 2 -49 -57z m853 24 c-26 -18 -30 -11 -7
12 10 10 20 15 22 10 1 -4 -5 -14 -15 -22z m-214 -15 c0 -5 -2 -10 -4 -10 -3
0 -8 5 -11 10 -3 6 -1 10 4 10 6 0 11 -4 11 -10z m60 0 c0 -5 -2 -10 -4 -10
-3 0 -8 5 -11 10 -3 6 -1 10 4 10 6 0 11 -4 11 -10z m1920 -23 c35 -17 46 -28
48 -50 7 -59 -79 -146 -201 -202 -70 -32 -100 -41 -182 -50 -37 -4 -65 -25
-65 -49 0 -6 -5 -4 -10 4 -15 23 -12 122 5 170 20 58 66 112 126 151 98 62
189 71 279 26z m-1820 4 c0 -5 -7 -12 -16 -15 -14 -5 -15 -4 -4 9 14 17 20 19
20 6z m88 -3 c-3 -11 -59 -48 -73 -48 -3 0 -5 7 -5 16 0 10 5 14 15 10 9 -3
20 3 27 14 14 22 40 27 36 8z m-228 -8 c0 -5 -2 -10 -4 -10 -3 0 -8 5 -11 10
-3 6 -1 10 4 10 6 0 11 -4 11 -10z m3505 -40 l0 -45 -47 -3 -48 -3 0 51 0 51
48 -3 47 -3 0 -45z m-3535 20 c0 -5 -4 -10 -10 -10 -5 0 -10 5 -10 10 0 6 5
10 10 10 6 0 10 -4 10 -10z m120 -5 c0 -8 -4 -15 -10 -15 -5 0 -10 7 -10 15 0
8 5 15 10 15 6 0 10 -7 10 -15z m-175 -25 c3 -5 2 -10 -4 -10 -5 0 -13 5 -16
10 -3 6 -2 10 4 10 5 0 13 -4 16 -10z m99 -25 c16 -19 35 -35 43 -35 7 0 13
-7 13 -15 0 -22 -15 -18 -41 11 -13 14 -32 33 -41 42 -10 9 -18 20 -18 24 0
17 16 7 44 -27z m57 3 c27 -33 23 -45 -6 -18 -24 22 -32 40 -19 40 3 0 14 -10
25 -22z m44 13 c3 -5 1 -12 -5 -16 -5 -3 -10 1 -10 9 0 18 6 21 15 7z m-240
-11 c3 -5 2 -10 -4 -10 -5 0 -13 5 -16 10 -3 6 -2 10 4 10 5 0 13 -4 16 -10z
m80 0 c3 -5 1 -10 -4 -10 -6 0 -11 5 -11 10 0 6 2 10 4 10 3 0 8 -4 11 -10z
m-109 -27 c15 -21 18 -33 6 -33 -5 0 -14 11 -20 25 -13 29 -5 33 14 8z m79 7
c3 -5 -1 -10 -9 -10 -9 0 -16 5 -16 10 0 6 4 10 9 10 6 0 13 -4 16 -10z m97
-70 c-3 -39 -6 -45 -22 -35 -9 5 -9 10 -1 18 15 15 14 27 -4 27 -16 0 -20 12
-8 24 18 18 38 -1 35 -34z m-198 24 c15 -6 23 -34 10 -34 -7 0 -34 27 -34 34
0 8 5 7 24 0z m-38 -28 c10 -8 15 -18 11 -22 -4 -4 -17 2 -29 14 -25 25 -13
30 18 8z m-16 -42 c0 -2 -7 -4 -15 -4 -8 0 -15 4 -15 10 0 5 7 7 15 4 8 -4 15
-8 15 -10z m-1798 -58 c95 -87 87 -81 81 -57 -3 12 -1 21 6 21 7 0 11 -29 11
-86 0 -73 -2 -85 -15 -80 -14 5 -14 2 0 -24 15 -30 21 -130 7 -130 -7 0 -278
272 -322 324 -14 16 -18 25 -10 20 32 -19 108 -24 118 -7 26 40 58 71 68 65 7
-4 32 -25 56 -46z m86 -27 c-34 -22 -45 12 -15 45 l22 25 3 -31 c2 -18 -2 -34
-10 -39z m1712 61 c0 -5 -4 -10 -10 -10 -5 0 -10 5 -10 10 0 6 5 10 10 10 6 0
10 -4 10 -10z m-2412 -556 c28 -19 29 -60 2 -74 -11 -6 -25 -8 -31 -5 -11 8
-245 -42 -269 -57 -11 -6 -5 -8 18 -5 44 5 27 -10 -22 -19 -32 -5 -37 -4 -31
7 6 9 2 9 -11 -2 -10 -9 -25 -14 -31 -12 -7 3 -13 0 -13 -6 0 -6 -5 -11 -11
-11 -5 0 -7 5 -4 10 8 13 -40 5 -86 -14 -36 -15 -40 -16 -65 -16 -10 0 -14 -6
-11 -14 4 -10 -5 -16 -32 -21 -21 -3 -42 -5 -47 -4 -23 4 -45 -2 -39 -11 10
-16 -27 -11 -47 7 -22 19 -24 56 -4 72 8 7 153 48 323 91 169 44 322 84 338
89 43 13 48 13 73 -5z m5366 -100 c35 -14 7 -90 -56 -151 -24 -23 -70 -55
-103 -70 l-60 -28 -302 -3 -303 -3 0 30 0 31 277 0 c311 0 354 6 434 65 31 22
55 50 70 84 13 28 25 50 26 51 1 0 8 -3 17 -6z m-5545 -28 c-12 -10 -60 -16
-54 -6 3 5 18 10 32 10 15 0 24 -2 22 -4z m4649 -198 l-3 -33 -372 -3 -373 -2
0 35 0 35 376 0 375 0 -3 -32z m-4493 10 c40 -18 29 -34 -32 -47 -252 -55
-423 -105 -445 -132 -15 -18 -19 -19 -24 -6 -13 34 1 62 39 80 36 18 384 114
419 116 9 1 29 -4 43 -11z m2915 -18 c0 -5 -2 -10 -4 -10 -3 0 -8 5 -11 10 -3
6 -1 10 4 10 6 0 11 -4 11 -10z m365 -91 c8 -49 3 -56 -51 -65 l-42 -6 -4 35
c-7 59 5 77 51 77 38 0 39 -1 46 -41z m-525 -39 c0 -5 -5 -10 -11 -10 -5 0 -7
5 -4 10 3 6 8 10 11 10 2 0 4 -4 4 -10z m-40 -30 c0 -5 -5 -10 -11 -10 -5 0
-7 5 -4 10 3 6 8 10 11 10 2 0 4 -4 4 -10z m-1780 -24 c0 -2 -8 -10 -17 -17
-16 -13 -17 -12 -4 4 13 16 21 21 21 13z m-370 -66 c39 -20 70 -63 70 -97 0
-14 -2 -15 -9 -4 -7 11 -10 9 -13 -10 -2 -18 -9 -24 -28 -24 -14 0 -32 -7 -42
-17 -19 -19 -80 -33 -103 -24 -20 7 -19 -13 3 -37 16 -19 16 -20 -5 -8 -62 32
-84 131 -40 183 26 32 73 58 105 58 12 0 41 -9 62 -20z m2045 -40 c3 -5 1 -10
-4 -10 -6 0 -11 5 -11 10 0 6 2 10 4 10 3 0 8 -4 11 -10z m1680 -6 c8 -4 23
-20 31 -36 14 -27 14 -32 0 -53 -21 -32 -52 -40 -81 -21 -54 36 -40 88 32 115
1 1 9 -2 18 -5z m-335 -43 c0 -3 -26 -4 -57 -2 -34 2 -50 6 -40 10 21 8 97 2
97 -8z m-237 2 c-7 -2 -19 -2 -25 0 -7 3 -2 5 12 5 14 0 19 -2 13 -5z m94 1
c-3 -3 -12 -4 -19 -1 -8 3 -5 6 6 6 11 1 17 -2 13 -5z m-2701 -29 c-11 -8 -27
-15 -35 -15 -9 1 -2 7 14 15 39 18 44 18 21 0z m-1242 -8 c12 -9 17 -23 14
-46 -4 -43 -27 -59 -65 -45 -23 8 -29 16 -31 47 -3 31 1 39 20 46 32 13 42 13
62 -2z m3206 -62 l0 -45 -50 0 -50 0 0 45 0 45 50 0 50 0 0 -45z m-2567 -52
c-7 -2 -19 -2 -25 0 -7 3 -2 5 12 5 14 0 19 -2 13 -5z"/>
<path d="M6810 9931 c0 -4 12 -18 26 -32 l26 -24 -12 27 c-12 26 -40 46 -40
29z"/>
<path d="M6791 9914 c0 -11 3 -14 6 -6 3 7 2 16 -1 19 -3 4 -6 -2 -5 -13z"/>
<path d="M6736 9903 c-6 -14 -5 -15 5 -6 7 7 10 15 7 18 -3 3 -9 -2 -12 -12z"/>
<path d="M5791 9883 c-15 -33 -8 -40 16 -16 15 15 16 22 7 30 -9 9 -14 5 -23
-14z"/>
<path d="M6860 9860 c0 -5 5 -10 10 -10 6 0 10 5 10 10 0 6 -4 10 -10 10 -5 0
-10 -4 -10 -10z"/>
<path d="M5660 9760 c-44 -44 -80 -87 -80 -96 0 -13 3 -14 13 -5 8 6 17 9 20
6 4 -3 5 -2 2 1 -2 4 0 16 6 26 8 15 14 17 22 9 6 -6 18 -11 27 -10 10 0 11 2
3 6 -7 2 -13 11 -13 19 0 11 4 12 19 4 29 -15 30 -13 21 20 -7 26 -6 30 11 30
21 0 26 16 7 23 -8 3 -6 6 5 6 9 1 17 7 17 15 0 8 6 17 13 19 9 4 9 6 0 6 -7
1 -48 -35 -93 -79z"/>
<path d="M5711 9634 c0 -11 3 -14 6 -6 3 7 2 16 -1 19 -3 4 -6 -2 -5 -13z"/>
<path d="M5800 9619 c0 -5 5 -7 10 -4 6 3 10 8 10 11 0 2 -4 4 -10 4 -5 0 -10
-5 -10 -11z"/>
<path d="M5647 9600 c3 -11 9 -20 14 -20 11 0 11 3 3 24 -9 23 -23 20 -17 -4z"/>
<path d="M5737 9613 c-12 -11 -8 -23 8 -23 8 0 15 7 15 15 0 16 -12 20 -23 8z"/>
<path d="M5680 9600 c0 -5 7 -10 15 -10 8 0 15 5 15 10 0 6 -7 10 -15 10 -8 0
-15 -4 -15 -10z"/>
<path d="M5613 9586 c6 -15 -35 -60 -46 -50 -7 8 -37 -20 -37 -35 0 -6 5 -11
10 -11 6 0 10 7 10 16 0 11 5 14 17 10 11 -5 23 1 35 16 13 18 19 21 29 11 10
-10 11 -15 1 -25 -7 -7 -18 -13 -25 -13 -14 0 -16 -37 -2 -41 6 -2 20 4 33 14
21 16 22 20 10 70 -8 31 -18 52 -26 52 -8 0 -12 -6 -9 -14z"/>
<path d="M5535 9580 c-3 -6 -10 -8 -15 -5 -13 8 -23 -13 -16 -32 6 -14 9 -13
27 6 12 12 28 20 36 17 9 -4 13 -1 11 6 -6 17 -34 22 -43 8z"/>
<path d="M5835 9580 c-3 -5 -1 -10 4 -10 6 0 11 5 11 10 0 6 -2 10 -4 10 -3 0
-8 -4 -11 -10z"/>
<path d="M5455 9570 c-7 -12 5 -60 15 -60 16 0 22 21 10 35 -6 8 -9 19 -5 25
3 5 2 10 -4 10 -5 0 -12 -4 -16 -10z"/>
<path d="M5688 9546 c-20 -15 -24 -36 -7 -36 6 0 17 6 25 14 29 29 14 47 -18
22z"/>
<path d="M5737 9490 c3 -11 7 -20 9 -20 2 0 4 9 4 20 0 11 -4 20 -9 20 -5 0
-7 -9 -4 -20z"/>
<path d="M5360 9481 c0 -6 5 -13 10 -16 6 -3 10 1 10 9 0 9 -4 16 -10 16 -5 0
-10 -4 -10 -9z"/>
<path d="M5317 9453 c-10 -9 -9 -23 2 -23 5 0 11 7 15 15 5 15 -5 20 -17 8z"/>
<path d="M5380 9435 c0 -8 7 -15 15 -15 8 0 15 7 15 15 0 8 -7 15 -15 15 -8 0
-15 -7 -15 -15z"/>
<path d="M5407 9404 c-9 -10 2 -24 19 -24 8 0 14 7 14 15 0 15 -21 21 -33 9z"/>
<path d="M5275 9370 c4 -6 11 -8 16 -5 14 9 11 15 -7 15 -8 0 -12 -5 -9 -10z"/>
<path d="M5156 9313 c-11 -11 -6 -23 9 -23 8 0 15 4 15 9 0 13 -16 22 -24 14z"/>
<path d="M2758 8822 c-5 -17 1 -32 22 -55 l29 -32 -3 30 c-2 18 -10 31 -19 33
-9 2 -17 13 -19 25 -3 22 -3 22 -10 -1z"/>
<path d="M9610 8793 c-154 -38 -257 -65 -595 -157 -132 -36 -277 -75 -323 -87
-85 -22 -106 -39 -81 -64 12 -12 27 -11 104 11 50 13 122 33 160 43 39 11 183
51 320 89 138 39 312 87 389 107 150 39 196 58 196 80 0 19 -10 18 -170 -22z"/>
<path d="M4703 8139 c9 -5 22 -7 28 -4 5 4 17 1 25 -6 12 -10 13 -9 8 5 -4 11
-18 16 -43 16 -29 -1 -33 -2 -18 -11z"/>
<path d="M7609 8365 c-92 -27 -126 -45 -159 -80 -24 -25 -25 -33 -28 -171 -2
-79 -1 -144 3 -144 3 0 59 16 123 35 64 19 143 41 175 50 l57 16 0 139 c0 130
-1 141 -22 160 -27 25 -53 24 -149 -5z"/>
<path d="M2911 6404 c0 -11 3 -14 6 -6 3 7 2 16 -1 19 -3 4 -6 -2 -5 -13z"/>
<path d="M3060 6370 c0 -5 5 -10 10 -10 6 0 10 5 10 10 0 6 -4 10 -10 10 -5 0
-10 -4 -10 -10z"/>
<path d="M3025 6310 c3 -5 8 -10 11 -10 2 0 4 5 4 10 0 6 -5 10 -11 10 -5 0
-7 -4 -4 -10z"/>
<path d="M3065 6290 c-3 -5 -1 -10 4 -10 6 0 11 5 11 10 0 6 -2 10 -4 10 -3 0
-8 -4 -11 -10z"/>
<path d="M2920 6264 c0 -8 5 -12 10 -9 6 4 8 11 5 16 -9 14 -15 11 -15 -7z"/>
<path d="M2980 6269 c0 -5 5 -7 10 -4 6 3 10 8 10 11 0 2 -4 4 -10 4 -5 0 -10
-5 -10 -11z"/>
<path d="M2895 6230 c3 -5 8 -10 11 -10 2 0 4 5 4 10 0 6 -5 10 -11 10 -5 0
-7 -4 -4 -10z"/>
<path d="M3058 6206 c-2 -20 -1 -36 3 -36 12 0 21 52 11 62 -6 6 -11 -4 -14
-26z"/>
<path d="M2951 6214 c0 -11 3 -14 6 -6 3 7 2 16 -1 19 -3 4 -6 -2 -5 -13z"/>
<path d="M2985 6210 c-3 -5 1 -13 10 -16 22 -9 29 1 11 15 -10 8 -16 9 -21 1z"/>
<path d="M2920 6170 c0 -5 5 -10 10 -10 6 0 10 5 10 10 0 6 -4 10 -10 10 -5 0
-10 -4 -10 -10z"/>
<path d="M2980 6145 c0 -8 5 -15 10 -15 6 0 10 7 10 15 0 8 -4 15 -10 15 -5 0
-10 -7 -10 -15z"/>
<path d="M3030 6136 c0 -9 5 -16 10 -16 6 0 10 4 10 9 0 6 -4 13 -10 16 -5 3
-10 -1 -10 -9z"/>
<path d="M2985 6081 c-3 -5 -1 -12 5 -16 5 -3 10 1 10 9 0 18 -6 21 -15 7z"/>
<path d="M3020 6081 c0 -5 5 -13 10 -16 6 -3 10 -2 10 4 0 5 -4 13 -10 16 -5
3 -10 2 -10 -4z"/>
<path d="M2977 6034 c-8 -8 3 -34 14 -34 11 0 12 27 0 34 -4 3 -11 3 -14 0z"/>
<path d="M2905 6020 c3 -5 10 -10 16 -10 5 0 9 5 9 10 0 6 -7 10 -16 10 -8 0
-12 -4 -9 -10z"/>
<path d="M3030 6005 c0 -9 5 -15 11 -13 6 2 11 8 11 13 0 5 -5 11 -11 13 -6 2
-11 -4 -11 -13z"/>
<path d="M2910 5955 c0 -8 5 -15 10 -15 6 0 10 7 10 15 0 8 -4 15 -10 15 -5 0
-10 -7 -10 -15z"/>
<path d="M2980 5945 c0 -8 5 -15 10 -15 6 0 10 7 10 15 0 8 -4 15 -10 15 -5 0
-10 -7 -10 -15z"/>
<path d="M3037 5943 c-12 -11 -8 -23 8 -23 8 0 15 7 15 15 0 16 -12 20 -23 8z"/>
<path d="M2966 5893 c-11 -11 -6 -23 9 -23 8 0 15 4 15 9 0 13 -16 22 -24 14z"/>
<path d="M2914 5876 c-8 -22 3 -33 18 -18 9 9 9 15 0 24 -9 9 -13 7 -18 -6z"/>
<path d="M3027 5864 c-8 -8 1 -24 14 -24 5 0 9 7 9 15 0 15 -12 20 -23 9z"/>
<path d="M2980 5825 c0 -8 5 -15 10 -15 6 0 10 7 10 15 0 8 -4 15 -10 15 -5 0
-10 -7 -10 -15z"/>
<path d="M2885 5820 c3 -5 8 -10 11 -10 2 0 4 5 4 10 0 6 -5 10 -11 10 -5 0
-7 -4 -4 -10z"/>
<path d="M2927 5813 c-12 -11 -8 -23 8 -23 8 0 15 7 15 15 0 16 -12 20 -23 8z"/>
<path d="M3020 5775 c0 -8 7 -15 15 -15 8 0 15 7 15 15 0 8 -7 15 -15 15 -8 0
-15 -7 -15 -15z"/>
<path d="M2880 5760 c0 -5 4 -10 9 -10 6 0 13 5 16 10 3 6 -1 10 -9 10 -9 0
-16 -4 -16 -10z"/>
<path d="M2964 5746 c-5 -12 -11 -13 -24 -6 -13 7 -21 7 -25 0 -3 -6 2 -13 12
-17 10 -3 21 -8 24 -9 12 -6 41 34 30 41 -6 3 -14 -1 -17 -9z"/>
<path d="M3030 5704 c0 -9 5 -14 12 -12 18 6 21 28 4 28 -9 0 -16 -7 -16 -16z"/>
<path d="M2916 5673 c-11 -11 -6 -23 9 -23 8 0 15 4 15 9 0 13 -16 22 -24 14z"/>
<path d="M2985 5671 c-7 -12 12 -24 25 -16 11 7 4 25 -10 25 -5 0 -11 -4 -15
-9z"/>
<path d="M2866 5662 c-7 -12 22 -38 31 -28 4 3 0 14 -9 22 -9 10 -18 12 -22 6z"/>
<path d="M3030 5634 c0 -9 5 -14 12 -12 18 6 21 28 4 28 -9 0 -16 -7 -16 -16z"/>
<path d="M2930 5594 c0 -9 5 -14 12 -12 18 6 21 28 4 28 -9 0 -16 -7 -16 -16z"/>
<path d="M2980 5596 c0 -9 7 -16 16 -16 9 0 14 5 12 12 -6 18 -28 21 -28 4z"/>
<path d="M3060 5575 c0 -8 5 -15 10 -15 6 0 10 7 10 15 0 8 -4 15 -10 15 -5 0
-10 -7 -10 -15z"/>
<path d="M2860 5570 c0 -5 7 -10 15 -10 8 0 15 5 15 10 0 6 -7 10 -15 10 -8 0
-15 -4 -15 -10z"/>
<path d="M3010 5566 c0 -2 7 -16 15 -32 12 -23 15 -25 21 -11 6 17 -11 47 -27
47 -5 0 -9 -2 -9 -4z"/>
<path d="M2965 5531 c-3 -5 -1 -12 5 -16 12 -7 30 2 30 16 0 12 -27 12 -35 0z"/>
<path d="M2892 5508 c5 -15 28 -18 29 -3 0 6 -7 12 -17 13 -10 3 -15 -1 -12
-10z"/>
<path d="M3035 5467 c-4 -10 -5 -21 -1 -24 10 -10 18 4 13 24 -4 17 -4 17 -12
0z"/>
<path d="M2967 5464 c-9 -10 2 -24 19 -24 8 0 14 7 14 15 0 15 -21 21 -33 9z"/>
<path d="M2860 5414 c0 -22 2 -24 14 -14 8 6 12 18 9 26 -9 23 -23 16 -23 -12z"/>
<path d="M2912 5429 c2 -6 8 -10 13 -10 5 0 11 4 13 10 2 6 -4 11 -13 11 -9 0
-15 -5 -13 -11z"/>
<path d="M3011 5397 c-12 -15 -5 -27 16 -27 7 0 13 9 13 20 0 23 -13 26 -29 7z"/>
<path d="M2921 5366 c-8 -10 -9 -16 -1 -21 13 -8 30 3 30 21 0 18 -14 18 -29
0z"/>
<path d="M2860 5311 c-7 -13 -7 -22 0 -26 13 -8 30 3 30 20 0 23 -18 27 -30 6z"/>
<path d="M3027 5323 c-13 -12 -7 -33 8 -33 8 0 15 9 15 20 0 20 -11 26 -23 13z"/>
<path d="M2947 5314 c-14 -14 -7 -35 11 -32 9 2 17 10 17 17 0 16 -18 25 -28
15z"/>
<path d="M2951 5259 c-13 -11 -22 -21 -19 -24 8 -8 47 7 52 21 8 22 -7 24 -33
3z"/>
<path d="M3037 5263 c-12 -11 -8 -23 8 -23 8 0 15 7 15 15 0 16 -12 20 -23 8z"/>
<path d="M2867 5243 c-10 -9 -9 -43 1 -43 12 0 32 23 32 37 0 14 -22 18 -33 6z"/>
<path d="M2969 5201 c-18 -17 -30 -33 -25 -38 4 -4 17 3 28 17 11 14 24 25 29
25 4 0 14 6 21 13 27 27 -20 12 -53 -17z"/>
<path d="M3037 5204 c-14 -14 -7 -35 11 -32 9 2 17 10 17 17 0 16 -18 25 -28
15z"/>
<path d="M2896 5161 c-4 -7 -5 -15 -2 -18 9 -9 19 4 14 18 -4 11 -6 11 -12 0z"/>
<path d="M2840 5145 c0 -8 9 -15 20 -15 13 0 18 5 14 15 -4 8 -12 15 -20 15
-8 0 -14 -7 -14 -15z"/>
<path d="M2957 5133 c-10 -3 -16 -10 -14 -16 6 -19 41 -14 45 6 4 17 1 18 -31
10z"/>
<path d="M3030 5111 c0 -11 4 -22 9 -25 12 -8 34 21 26 34 -11 17 -35 11 -35
-9z"/>
<path d="M2867 5103 c-4 -3 -7 -11 -7 -17 0 -6 5 -5 12 2 6 6 9 14 7 17 -3 3
-9 2 -12 -2z"/>
<path d="M2900 5064 c0 -21 4 -33 10 -29 6 3 10 19 10 36 0 16 -4 29 -10 29
-5 0 -10 -16 -10 -36z"/>
<path d="M2965 5051 c-4 -12 -15 -21 -27 -21 -11 0 -18 -5 -15 -12 2 -8 16
-12 33 -10 35 5 31 2 36 31 4 30 -18 40 -27 12z"/>
<path d="M2850 5040 c0 -13 5 -20 13 -17 6 2 12 10 12 17 0 7 -6 15 -12 18 -8
2 -13 -5 -13 -18z"/>
<path d="M3036 5041 c-3 -4 3 -16 13 -25 21 -19 37 -7 27 19 -6 16 -32 20 -40
6z"/>
<path d="M2846 4984 c-8 -21 -1 -28 19 -20 9 3 15 11 13 18 -7 19 -25 20 -32
2z"/>
<path d="M2920 4976 c0 -18 17 -29 30 -21 8 5 7 11 -1 21 -15 18 -29 18 -29 0z"/>
<path d="M3011 4973 c-1 -7 -10 -13 -21 -13 -11 0 -20 -7 -20 -15 0 -8 7 -15
16 -15 9 0 18 -9 21 -20 3 -11 12 -20 19 -20 8 0 14 1 14 3 -1 12 -29 89 -29
80z"/>
<path d="M2844 4916 c-7 -19 3 -52 13 -42 12 11 13 45 3 51 -6 4 -13 -1 -16
-9z"/>
<path d="M2896 4913 c-10 -26 -7 -30 24 -25 17 2 30 10 30 17 0 19 -48 25 -54
8z"/>
<path d="M5995 6908 c5 -13 45 -42 50 -36 1 2 -11 13 -26 26 -16 13 -27 17
-24 10z"/>
<path d="M5275 7739 c-22 -5 -88 -23 -147 -40 l-108 -32 0 -193 c0 -107 3
-194 7 -194 3 0 14 6 22 14 9 8 68 29 131 46 218 59 230 72 230 244 0 95 -2
107 -22 130 -28 30 -60 38 -113 25z"/>
<path d="M5191 7244 c0 -11 3 -14 6 -6 3 7 2 16 -1 19 -3 4 -6 -2 -5 -13z"/>
<path d="M9217 6283 c-4 -3 -7 -13 -7 -21 0 -12 3 -12 15 -2 8 7 15 16 15 21
0 11 -14 12 -23 2z"/>
<path d="M9133 6225 c-8 -22 6 -33 17 -15 13 20 12 30 0 30 -6 0 -13 -7 -17
-15z"/>
<path d="M9059 6204 c-12 -14 -11 -16 5 -13 11 2 21 10 24 17 5 17 -13 15 -29
-4z"/>
<path d="M9221 6206 c-8 -9 -11 -19 -7 -23 9 -9 29 13 24 27 -2 8 -8 7 -17 -4z"/>
<path d="M9155 6160 c-4 -6 -3 -16 3 -22 6 -6 12 -6 17 2 4 6 3 16 -3 22 -6 6
-12 6 -17 -2z"/>
<path d="M9215 6149 c-4 -6 -5 -13 -2 -16 7 -7 27 6 27 18 0 12 -17 12 -25 -2z"/>
<path d="M9066 6135 c-3 -8 -1 -15 4 -15 13 0 22 18 11 24 -5 3 -11 -1 -15 -9z"/>
<path d="M9215 6089 c-4 -6 -5 -13 -2 -16 7 -7 27 6 27 18 0 12 -17 12 -25 -2z"/>
<path d="M9036 6059 c-11 -10 -17 -22 -14 -25 10 -9 48 16 48 31 0 20 -11 18
-34 -6z"/>
<path d="M9170 6055 c-7 -9 -10 -18 -7 -22 8 -7 37 15 37 28 0 14 -16 11 -30
-6z"/>
<path d="M9102 6013 c5 -25 28 -28 28 -4 0 12 -6 21 -16 21 -9 0 -14 -7 -12
-17z"/>
<path d="M9220 6010 c0 -24 15 -27 24 -4 9 22 8 24 -9 24 -8 0 -15 -9 -15 -20z"/>
<path d="M9037 5966 c-6 -16 2 -28 14 -20 12 7 11 34 0 34 -5 0 -11 -6 -14
-14z"/>
<path d="M9166 5961 c-6 -10 16 -61 27 -61 8 0 9 17 1 48 -6 23 -19 29 -28 13z"/>
<path d="M9224 5945 c-7 -17 4 -37 17 -30 12 8 12 45 -1 45 -6 0 -13 -7 -16
-15z"/>
<path d="M9109 5913 c-8 -23 -7 -30 7 -40 21 -16 34 -17 34 -3 0 6 -5 10 -10
10 -6 0 -8 10 -4 24 8 35 -14 43 -27 9z"/>
<path d="M9050 5904 c0 -10 -6 -14 -15 -10 -9 3 -15 0 -15 -9 0 -19 17 -19 36
-1 16 17 19 36 4 36 -5 0 -10 -7 -10 -16z"/>
<path d="M9192 5858 c-24 -24 -8 -69 18 -53 8 5 7 11 -1 21 -19 23 -3 27 27 7
27 -17 28 -17 21 0 -4 10 -7 22 -7 26 0 12 -46 11 -58 -1z"/>
<path d="M9053 5829 c-7 -7 -13 -23 -13 -35 0 -16 6 -21 25 -21 26 0 31 7 16
23 -5 5 -11 17 -13 27 -2 15 -5 16 -15 6z"/>
<path d="M9120 5816 c0 -21 21 -31 31 -15 14 22 11 29 -11 29 -11 0 -20 -6
-20 -14z"/>
<path d="M2140 7676 c0 -2 8 -10 18 -17 15 -13 16 -12 3 4 -13 16 -21 21 -21
13z"/>
<path d="M2265 7547 c10 -15 20 -25 23 -22 3 3 -5 16 -17 28 l-23 22 17 -28z"/>
<path d="M4035 7449 c-113 -27 -176 -49 -207 -71 l-27 -19 -3 -154 c-2 -85 -2
-155 0 -155 9 0 215 53 275 71 l67 20 -2 161 c-2 97 -7 162 -13 164 -5 1 -46
-6 -90 -17z"/>
<path d="M10350 6940 c0 -5 7 -10 16 -10 8 0 12 5 9 10 -3 6 -10 10 -16 10 -5
0 -9 -4 -9 -10z"/>
<path d="M10400 6900 c0 -5 5 -10 11 -10 5 0 7 5 4 10 -3 6 -8 10 -11 10 -2 0
-4 -4 -4 -10z"/>
<path d="M10380 6864 c0 -8 5 -12 10 -9 6 3 10 10 10 16 0 5 -4 9 -10 9 -5 0
-10 -7 -10 -16z"/>
<path d="M10425 6851 c-3 -5 -1 -12 5 -16 5 -3 10 1 10 9 0 18 -6 21 -15 7z"/>
<path d="M10450 6810 c0 -5 5 -10 10 -10 6 0 10 5 10 10 0 6 -4 10 -10 10 -5
0 -10 -4 -10 -10z"/>
<path d="M10418 6776 c-20 -15 -14 -92 9 -100 10 -4 13 -1 9 12 -17 57 -18 75
-5 83 7 4 11 10 9 13 -3 2 -13 -1 -22 -8z"/>
<path d="M10475 6770 c-3 -5 -1 -10 4 -10 6 0 11 5 11 10 0 6 -2 10 -4 10 -3
0 -8 -4 -11 -10z"/>
<path d="M10445 6741 c-3 -5 -1 -12 5 -16 5 -3 10 1 10 9 0 18 -6 21 -15 7z"/>
<path d="M10366 6681 c-3 -5 1 -14 8 -20 16 -13 32 2 21 19 -8 12 -22 13 -29
1z"/>
<path d="M10448 6653 c-26 -6 -22 -18 7 -19 14 -1 25 2 25 6 0 12 -12 17 -32
13z"/>
<path d="M10347 6634 c-8 -8 1 -24 14 -24 5 0 9 7 9 15 0 15 -12 20 -23 9z"/>
<path d="M10385 6629 c-4 -6 -5 -13 -2 -16 7 -7 27 6 27 18 0 12 -17 12 -25
-2z"/>
<path d="M10490 6600 c-8 -5 -10 -10 -5 -10 6 0 17 5 25 10 8 5 11 10 5 10 -5
0 -17 -5 -25 -10z"/>
<path d="M10405 6590 c-3 -5 1 -10 9 -10 9 0 16 5 16 10 0 6 -4 10 -9 10 -6 0
-13 -4 -16 -10z"/>
<path d="M10450 6584 c0 -8 5 -12 10 -9 6 4 8 11 5 16 -9 14 -15 11 -15 -7z"/>
<path d="M10356 6581 c-3 -5 1 -11 9 -15 8 -3 15 -12 15 -21 0 -20 34 -19 51
1 12 15 11 16 -8 10 -16 -5 -25 -2 -33 14 -11 21 -25 26 -34 11z"/>
<path d="M10470 6540 c0 -5 5 -10 11 -10 5 0 7 5 4 10 -3 6 -8 10 -11 10 -2 0
-4 -4 -4 -10z"/>
<path d="M10430 6510 c0 -5 5 -10 10 -10 6 0 10 5 10 10 0 6 -4 10 -10 10 -5
0 -10 -4 -10 -10z"/>
<path d="M10520 6500 c0 -5 5 -10 11 -10 5 0 7 5 4 10 -3 6 -8 10 -11 10 -2 0
-4 -4 -4 -10z"/>
<path d="M10400 6490 c0 -5 5 -10 10 -10 6 0 10 5 10 10 0 6 -4 10 -10 10 -5
0 -10 -4 -10 -10z"/>
<path d="M10316 6481 c-3 -5 1 -14 8 -20 16 -13 32 2 21 19 -8 12 -22 13 -29
1z"/>
<path d="M10451 6473 c0 -4 4 -17 9 -28 8 -19 9 -19 9 2 1 12 -3 25 -9 28 -5
3 -10 3 -9 -2z"/>
<path d="M10406 6461 c-4 -7 -5 -15 -2 -18 9 -9 19 4 14 18 -4 11 -6 11 -12 0z"/>
<path d="M10400 6405 c0 -8 5 -15 10 -15 6 0 10 7 10 15 0 8 -4 15 -10 15 -5
0 -10 -7 -10 -15z"/>
<path d="M10460 6390 c0 -5 5 -10 10 -10 6 0 10 5 10 10 0 6 -4 10 -10 10 -5
0 -10 -4 -10 -10z"/>
<path d="M10423 6363 c9 -9 19 -14 23 -11 10 10 -6 28 -24 28 -15 0 -15 -1 1
-17z"/>
<path d="M10455 6319 c-4 -6 -5 -13 -2 -16 7 -7 27 6 27 18 0 12 -17 12 -25
-2z"/>
<path d="M10510 6320 c0 -5 5 -10 10 -10 6 0 10 5 10 10 0 6 -4 10 -10 10 -5
0 -10 -4 -10 -10z"/>
<path d="M10370 6300 c0 -5 5 -10 11 -10 5 0 7 5 4 10 -3 6 -8 10 -11 10 -2 0
-4 -4 -4 -10z"/>
<path d="M10470 6269 c0 -5 5 -7 10 -4 6 3 10 8 10 11 0 2 -4 4 -10 4 -5 0
-10 -5 -10 -11z"/>
<path d="M10485 6239 c-10 -15 3 -25 16 -12 7 7 7 13 1 17 -6 3 -14 1 -17 -5z"/>
<path d="M10436 6233 c-11 -11 -6 -23 9 -23 8 0 15 4 15 9 0 13 -16 22 -24 14z"/>
<path d="M10440 6180 c0 -5 5 -10 10 -10 6 0 10 5 10 10 0 6 -4 10 -10 10 -5
0 -10 -4 -10 -10z"/>
<path d="M10460 6144 c0 -8 5 -12 10 -9 6 4 8 11 5 16 -9 14 -15 11 -15 -7z"/>
<path d="M10420 6133 c0 -5 4 -15 10 -23 11 -18 25 -7 17 15 -6 15 -27 21 -27
8z"/>
<path d="M10505 6130 c-3 -5 -1 -10 4 -10 6 0 11 5 11 10 0 6 -2 10 -4 10 -3
0 -8 -4 -11 -10z"/>
<path d="M10450 6081 c0 -5 5 -13 10 -16 6 -3 10 -2 10 4 0 5 -4 13 -10 16 -5
3 -10 2 -10 -4z"/>
<path d="M10420 6050 c-8 -5 -11 -12 -7 -16 4 -4 15 0 24 9 18 18 8 23 -17 7z"/>
<path d="M10430 5995 c7 -9 15 -13 17 -11 7 7 -7 26 -19 26 -6 0 -6 -6 2 -15z"/>
<path d="M6993 6320 c-239 -66 -238 -64 -238 -246 0 -74 3 -134 8 -134 7 0
235 59 340 87 48 14 57 20 57 40 1 12 1 79 1 148 0 69 0 130 -1 135 0 15 -11
13 -167 -30z"/>
<path d="M4190 5135 c13 -14 26 -25 28 -25 3 0 -5 11 -18 25 -13 14 -26 25
-28 25 -3 0 5 -11 18 -25z"/>
<path d="M10685 5620 c-13 -6 -15 -9 -5 -9 8 0 22 4 30 9 18 12 2 12 -25 0z"/>
<path d="M2208 5397 l-46 -52 -45 48 c-24 26 -48 47 -53 47 -15 0 -34 -22 -34
-39 0 -15 68 -81 85 -81 5 0 -9 -18 -30 -40 -21 -22 -43 -40 -48 -40 -4 0 -17
19 -28 43 -15 31 -19 34 -14 14 6 -30 47 -101 64 -112 6 -3 31 13 55 36 l45
41 53 -46 c39 -34 55 -43 65 -34 19 16 17 22 -32 79 -42 50 -44 54 -28 71 9
10 28 24 42 31 32 15 38 48 13 70 -17 16 -21 14 -64 -36z"/>
<path d="M9760 3215 c-7 -9 -8 -15 -2 -15 5 0 12 7 16 15 3 8 4 15 2 15 -2 0
-9 -7 -16 -15z"/>
<path d="M7548 3727 c-7 -8 -19 -12 -26 -9 -6 2 -12 -3 -12 -12 0 -20 14 -21
30 -1 7 8 19 15 26 15 8 0 14 5 14 10 0 14 -16 12 -32 -3z"/>
<path d="M7329 3473 c-19 -22 -24 -29 -9 -18 40 32 53 46 48 50 -2 3 -20 -12
-39 -32z"/>
<path d="M7134 3459 c-3 -6 -1 -16 5 -22 8 -8 11 -5 11 11 0 24 -5 28 -16 11z"/>
<path d="M7030 3436 c0 -9 7 -16 16 -16 9 0 14 5 12 12 -6 18 -28 21 -28 4z"/>
<path d="M7100 3420 c0 -19 11 -26 23 -14 8 8 -3 34 -14 34 -5 0 -9 -9 -9 -20z"/>
<path d="M6927 3423 c-12 -11 -8 -23 8 -23 8 0 15 7 15 15 0 16 -12 20 -23 8z"/>
<path d="M7005 3399 c-7 -10 10 -28 28 -29 12 0 8 17 -7 29 -11 9 -16 9 -21 0z"/>
<path d="M7062 3401 c-10 -6 -10 -11 3 -21 19 -16 30 -7 18 14 -5 9 -13 12
-21 7z"/>
<path d="M6956 3371 c-3 -5 1 -14 9 -21 13 -10 15 -9 15 9 0 21 -14 28 -24 12z"/>
<path d="M6875 3339 c-4 -6 -5 -13 -2 -16 7 -7 27 6 27 18 0 12 -17 12 -25 -2z"/>
<path d="M7025 3339 c-11 -16 -1 -19 13 -3 7 8 8 14 3 14 -5 0 -13 -5 -16 -11z"/>
<path d="M6830 3309 c0 -6 -7 -9 -14 -6 -20 8 -31 -27 -16 -50 10 -16 10 -15
5 4 -5 18 -1 25 19 35 26 11 35 28 16 28 -5 0 -10 -5 -10 -11z"/>
<path d="M6911 3284 c0 -11 3 -14 6 -6 3 7 2 16 -1 19 -3 4 -6 -2 -5 -13z"/>
<path d="M6710 3221 c0 -5 5 -13 10 -16 6 -3 10 -2 10 4 0 5 -4 13 -10 16 -5
3 -10 2 -10 -4z"/>
<path d="M6010 2970 c-26 -26 -25 -44 2 -70 26 -24 32 -25 63 -4 35 23 39 44
14 71 -27 28 -53 29 -79 3z"/>
</g>
</svg>
